<svg xmlns="http://www.w3.org/2000/svg" xmlns:xlink="http://www.w3.org/1999/xlink" width="250" zoomAndPan="magnify" viewBox="0 0 187.92 83.04" height="100" preserveAspectRatio="xMidYMid meet" version="1.2"><defs/><g id="9891fe10a5"><g style="fill:#bc9c22;fill-opacity:1;"><g transform="translate(40.89036, 53.404785)"><path style="stroke:none" d="M 1.234375 0 L 1.234375 -0.625 L 2.46875 -1.046875 C 3.875 -1.503906 4.578125 -2.679688 4.578125 -4.578125 L 4.578125 -36.234375 C 4.578125 -37.066406 4.484375 -37.726562 4.296875 -38.21875 C 4.109375 -38.71875 3.625 -39.128906 2.84375 -39.453125 L 1.234375 -40.203125 L 1.234375 -40.8125 L 13.171875 -40.8125 L 24.609375 -10.890625 L 35.375 -40.8125 L 47.5625 -40.8125 L 47.5625 -40.203125 L 46.5625 -39.828125 C 45.78125 -39.535156 45.242188 -39.128906 44.953125 -38.609375 C 44.671875 -38.097656 44.53125 -37.429688 44.53125 -36.609375 L 44.53125 -4.265625 C 44.53125 -3.441406 44.628906 -2.800781 44.828125 -2.34375 C 45.035156 -1.894531 45.535156 -1.503906 46.328125 -1.171875 L 47.5625 -0.625 L 47.5625 0 L 32.15625 0 L 32.15625 -0.625 L 33.453125 -1.171875 C 34.234375 -1.503906 34.726562 -1.894531 34.9375 -2.34375 C 35.144531 -2.800781 35.25 -3.441406 35.25 -4.265625 L 35.25 -18.1875 L 35.375 -35.875 L 22.453125 0 L 19.359375 0 L 5.875 -35.4375 L 6.0625 -20.03125 L 6.0625 -4.453125 C 6.0625 -3.546875 6.191406 -2.8125 6.453125 -2.25 C 6.722656 -1.695312 7.253906 -1.296875 8.046875 -1.046875 L 9.40625 -0.625 L 9.40625 0 Z M 1.234375 0 "/></g></g><g style="fill:#bc9c22;fill-opacity:1;"><g transform="translate(89.805603, 53.404785)"><path style="stroke:none" d="M 7.484375 15.453125 L 7.484375 -46.375 L 8.96875 -46.375 L 8.96875 15.453125 Z M 7.484375 15.453125 "/></g></g><g style="fill:#bc9c22;fill-opacity:1;"><g transform="translate(106.316812, 53.404785)"><path style="stroke:none" d="M 0.5 0 L 0.5 -0.625 L 2.046875 -1.171875 C 2.867188 -1.503906 3.503906 -1.90625 3.953125 -2.375 C 4.410156 -2.851562 4.785156 -3.523438 5.078125 -4.390625 L 17.8125 -40.9375 L 23.0625 -40.9375 L 35.625 -4.140625 C 35.945312 -3.234375 36.316406 -2.539062 36.734375 -2.0625 C 37.148438 -1.59375 37.789062 -1.191406 38.65625 -0.859375 L 39.390625 -0.625 L 39.390625 0 L 23.6875 0 L 23.6875 -0.625 L 24.609375 -0.921875 C 25.472656 -1.253906 26 -1.71875 26.1875 -2.3125 C 26.375 -2.914062 26.34375 -3.628906 26.09375 -4.453125 L 23.1875 -13.359375 L 9.46875 -13.359375 L 6.5 -4.640625 C 6.207031 -3.734375 6.113281 -3.007812 6.21875 -2.46875 C 6.320312 -1.9375 6.804688 -1.503906 7.671875 -1.171875 L 9.03125 -0.625 L 9.03125 0 Z M 9.890625 -14.59375 L 22.8125 -14.59375 L 16.578125 -33.828125 Z M 9.890625 -14.59375 "/></g></g><g style="fill:#151f28;fill-opacity:1;"><g transform="translate(27.059685, 43.248847)"><path style="stroke:none" d="M 27 -15.078125 C 27.09375 -15.003906 27.175781 -14.921875 27.25 -14.828125 C 27.320312 -14.734375 27.367188 -14.617188 27.390625 -14.484375 C 27.410156 -14.335938 27.359375 -14.222656 27.234375 -14.140625 C 27.148438 -14.109375 27.070312 -14.101562 27 -14.125 C 26.925781 -14.15625 26.875 -14.210938 26.84375 -14.296875 C 26.757812 -14.523438 26.632812 -14.707031 26.46875 -14.84375 C 26.300781 -14.976562 26.117188 -15.097656 25.921875 -15.203125 C 25.484375 -15.429688 25.03125 -15.613281 24.5625 -15.75 C 24.09375 -15.894531 23.617188 -16.023438 23.140625 -16.140625 C 22.347656 -16.304688 21.296875 -16.414062 19.984375 -16.46875 C 18.671875 -16.519531 17.207031 -16.5 15.59375 -16.40625 C 13.976562 -16.320312 12.328125 -16.148438 10.640625 -15.890625 C 8.953125 -15.628906 7.332031 -15.273438 5.78125 -14.828125 C 4.238281 -14.378906 2.882812 -13.820312 1.71875 -13.15625 C 0.550781 -12.488281 -0.320312 -11.703125 -0.90625 -10.796875 C -1.382812 -10.015625 -1.476562 -9.1875 -1.1875 -8.3125 C -0.976562 -7.707031 -0.675781 -7.160156 -0.28125 -6.671875 C 0.289062 -5.941406 0.929688 -5.269531 1.640625 -4.65625 C 2.242188 -4.113281 2.847656 -3.566406 3.453125 -3.015625 C 4.035156 -2.492188 4.625 -1.96875 5.21875 -1.4375 C 5.875 -0.820312 6.523438 -0.207031 7.171875 0.40625 C 7.222656 0.46875 7.28125 0.523438 7.34375 0.578125 C 7.6875 0.898438 7.988281 1.253906 8.25 1.640625 C 8.519531 2.085938 8.570312 2.429688 8.40625 2.671875 C 8.238281 2.921875 7.921875 3.085938 7.453125 3.171875 C 6.992188 3.265625 6.457031 3.296875 5.84375 3.265625 C 5.238281 3.234375 4.625 3.15625 4 3.03125 C 3.375 2.914062 2.820312 2.773438 2.34375 2.609375 C 1.863281 2.441406 1.523438 2.265625 1.328125 2.078125 C 0.921875 1.710938 0.894531 1.328125 1.25 0.921875 C 1.613281 0.492188 2.066406 0.1875 2.609375 0 C 3.378906 -0.300781 4.164062 -0.328125 4.96875 -0.078125 C 5.113281 -0.0234375 5.257812 0.046875 5.40625 0.140625 C 5.414062 0.148438 5.425781 0.160156 5.4375 0.171875 C 5.476562 0.191406 5.503906 0.222656 5.515625 0.265625 C 5.535156 0.304688 5.53125 0.347656 5.5 0.390625 C 5.4375 0.472656 5.359375 0.5 5.265625 0.46875 C 5.179688 0.4375 5.097656 0.394531 5.015625 0.34375 C 4.472656 0.0703125 3.910156 0.015625 3.328125 0.171875 C 2.742188 0.335938 2.25 0.65625 1.84375 1.125 C 1.675781 1.351562 1.671875 1.550781 1.828125 1.71875 C 1.984375 1.894531 2.222656 2.046875 2.546875 2.171875 C 2.867188 2.296875 3.191406 2.390625 3.515625 2.453125 C 3.835938 2.523438 4.082031 2.570312 4.25 2.59375 C 4.28125 2.59375 4.300781 2.597656 4.3125 2.609375 C 4.34375 2.609375 4.378906 2.609375 4.421875 2.609375 C 4.628906 2.660156 4.910156 2.707031 5.265625 2.75 C 5.628906 2.800781 6 2.835938 6.375 2.859375 C 6.757812 2.878906 7.085938 2.851562 7.359375 2.78125 C 7.628906 2.71875 7.78125 2.582031 7.8125 2.375 C 7.84375 2.175781 7.691406 1.882812 7.359375 1.5 C 6.992188 1.082031 6.613281 0.679688 6.21875 0.296875 C 5.21875 -0.671875 4.195312 -1.609375 3.15625 -2.515625 C 2.78125 -2.847656 2.398438 -3.1875 2.015625 -3.53125 C 1.390625 -4.09375 0.773438 -4.671875 0.171875 -5.265625 C -0.390625 -5.804688 -0.882812 -6.40625 -1.3125 -7.0625 C -1.613281 -7.53125 -1.828125 -8.039062 -1.953125 -8.59375 C -2.140625 -9.476562 -1.972656 -10.300781 -1.453125 -11.0625 C -0.890625 -11.914062 -0.0703125 -12.671875 1 -13.328125 C 2.070312 -13.984375 3.3125 -14.539062 4.71875 -15 C 6.132812 -15.46875 7.644531 -15.84375 9.25 -16.125 C 10.851562 -16.414062 12.46875 -16.617188 14.09375 -16.734375 C 15.726562 -16.859375 17.296875 -16.898438 18.796875 -16.859375 C 20.296875 -16.828125 21.648438 -16.71875 22.859375 -16.53125 C 24.078125 -16.34375 25.070312 -16.082031 25.84375 -15.75 C 26.257812 -15.582031 26.644531 -15.359375 27 -15.078125 Z M 27 -15.078125 "/></g></g><g style="fill:#151f28;fill-opacity:1;"><g transform="translate(36.369984, 43.248847)"><path style="stroke:none" d="M 3.265625 -2.53125 C 2.796875 -1.976562 2.335938 -1.570312 1.890625 -1.3125 C 1.441406 -1.050781 0.960938 -0.960938 0.453125 -1.046875 C -0.0546875 -1.140625 -0.265625 -1.484375 -0.171875 -2.078125 C -0.109375 -2.378906 -0.0234375 -2.671875 0.078125 -2.953125 C 0.347656 -3.617188 0.625 -4.28125 0.90625 -4.9375 C 0.988281 -5.175781 1.082031 -5.414062 1.1875 -5.65625 C 1.207031 -5.707031 1.226562 -5.757812 1.25 -5.8125 C 1.289062 -5.894531 1.332031 -5.984375 1.375 -6.078125 C 1.425781 -6.234375 1.363281 -6.3125 1.1875 -6.3125 C 1.082031 -6.3125 0.984375 -6.3125 0.890625 -6.3125 C 0.847656 -6.3125 0.796875 -6.3125 0.734375 -6.3125 C 0.679688 -6.3125 0.628906 -6.304688 0.578125 -6.296875 C 0.484375 -6.285156 0.390625 -6.28125 0.296875 -6.28125 C 0.210938 -6.28125 0.132812 -6.304688 0.0625 -6.359375 C 0.0390625 -6.359375 0.0195312 -6.367188 0 -6.390625 C -0.0078125 -6.410156 -0.015625 -6.429688 -0.015625 -6.453125 C -0.00390625 -6.472656 0.00390625 -6.488281 0.015625 -6.5 C 0.0351562 -6.519531 0.0546875 -6.535156 0.078125 -6.546875 C 0.160156 -6.578125 0.242188 -6.597656 0.328125 -6.609375 C 0.535156 -6.617188 0.75 -6.628906 0.96875 -6.640625 C 1.050781 -6.640625 1.125 -6.640625 1.1875 -6.640625 C 1.320312 -6.640625 1.421875 -6.644531 1.484375 -6.65625 C 1.554688 -6.664062 1.613281 -6.703125 1.65625 -6.765625 C 1.695312 -6.828125 1.75 -6.925781 1.8125 -7.0625 C 1.84375 -7.125 1.878906 -7.195312 1.921875 -7.28125 C 2.035156 -7.53125 2.148438 -7.78125 2.265625 -8.03125 C 2.316406 -8.144531 2.375 -8.253906 2.4375 -8.359375 C 2.476562 -8.472656 2.546875 -8.5625 2.640625 -8.625 C 2.734375 -8.664062 2.816406 -8.660156 2.890625 -8.609375 C 2.910156 -8.597656 2.925781 -8.578125 2.9375 -8.546875 C 2.945312 -8.515625 2.953125 -8.484375 2.953125 -8.453125 C 2.953125 -8.316406 2.921875 -8.179688 2.859375 -8.046875 C 2.835938 -8.023438 2.820312 -7.992188 2.8125 -7.953125 C 2.757812 -7.828125 2.707031 -7.703125 2.65625 -7.578125 C 2.5625 -7.335938 2.46875 -7.09375 2.375 -6.84375 C 2.351562 -6.800781 2.351562 -6.757812 2.375 -6.71875 C 2.394531 -6.6875 2.425781 -6.671875 2.46875 -6.671875 C 2.71875 -6.660156 2.960938 -6.65625 3.203125 -6.65625 C 3.316406 -6.65625 3.4375 -6.65625 3.5625 -6.65625 C 3.945312 -6.65625 4.101562 -6.601562 4.03125 -6.5 C 3.976562 -6.4375 3.921875 -6.398438 3.859375 -6.390625 C 3.796875 -6.390625 3.734375 -6.394531 3.671875 -6.40625 C 3.628906 -6.40625 3.585938 -6.40625 3.546875 -6.40625 C 3.160156 -6.375 2.773438 -6.359375 2.390625 -6.359375 C 2.210938 -6.359375 2.09375 -6.273438 2.03125 -6.109375 C 1.96875 -5.960938 1.910156 -5.8125 1.859375 -5.65625 C 1.765625 -5.457031 1.679688 -5.257812 1.609375 -5.0625 C 1.535156 -4.882812 1.457031 -4.703125 1.375 -4.515625 C 1.175781 -4.046875 0.988281 -3.578125 0.8125 -3.109375 C 0.6875 -2.804688 0.59375 -2.492188 0.53125 -2.171875 C 0.382812 -1.585938 0.609375 -1.363281 1.203125 -1.5 C 1.785156 -1.632812 2.398438 -2.054688 3.046875 -2.765625 C 3.328125 -2.941406 3.398438 -2.863281 3.265625 -2.53125 Z M 3.265625 -2.53125 "/></g></g><g style="fill:#151f28;fill-opacity:1;"><g transform="translate(40.944883, 43.248847)"><path style="stroke:none" d="M 0.125 -0.921875 C -0.195312 -0.921875 -0.359375 -1.09375 -0.359375 -1.4375 C -0.359375 -1.863281 -0.0859375 -2.609375 0.453125 -3.671875 C 0.472656 -3.710938 0.507812 -3.734375 0.5625 -3.734375 C 0.789062 -3.734375 0.90625 -3.648438 0.90625 -3.484375 C 0.90625 -3.421875 0.882812 -3.34375 0.84375 -3.25 C 0.832031 -3.226562 0.648438 -2.769531 0.296875 -1.875 C 0.234375 -1.726562 0.203125 -1.617188 0.203125 -1.546875 C 0.203125 -1.472656 0.238281 -1.4375 0.3125 -1.4375 C 0.5625 -1.4375 1.226562 -2.066406 2.3125 -3.328125 C 2.457031 -3.492188 2.597656 -3.578125 2.734375 -3.578125 C 2.929688 -3.578125 3.03125 -3.503906 3.03125 -3.359375 C 3.03125 -3.304688 2.96875 -3.097656 2.84375 -2.734375 C 2.675781 -2.234375 2.59375 -1.945312 2.59375 -1.875 C 2.59375 -1.757812 2.628906 -1.703125 2.703125 -1.703125 C 2.898438 -1.703125 3.460938 -2.039062 4.390625 -2.71875 C 4.441406 -2.769531 4.484375 -2.796875 4.515625 -2.796875 C 4.609375 -2.796875 4.65625 -2.722656 4.65625 -2.578125 C 4.65625 -2.535156 4.640625 -2.503906 4.609375 -2.484375 C 4.117188 -2.054688 3.703125 -1.734375 3.359375 -1.515625 C 3.046875 -1.316406 2.769531 -1.21875 2.53125 -1.21875 L 2.453125 -1.21875 C 2.085938 -1.289062 1.90625 -1.566406 1.90625 -2.046875 C 1.53125 -1.710938 1.210938 -1.441406 0.953125 -1.234375 C 0.703125 -1.023438 0.425781 -0.921875 0.125 -0.921875 Z M 0.125 -0.921875 "/></g></g><g style="fill:#151f28;fill-opacity:1;"><g transform="translate(46.847366, 43.248847)"><path style="stroke:none" d="M 4.640625 -2.75 C 4.710938 -2.726562 4.75 -2.703125 4.75 -2.671875 C 4.757812 -2.640625 4.765625 -2.625 4.765625 -2.625 C 4.679688 -2.476562 4.582031 -2.34375 4.46875 -2.21875 C 4.226562 -1.9375 3.941406 -1.71875 3.609375 -1.5625 C 3.453125 -1.46875 3.269531 -1.414062 3.0625 -1.40625 C 2.601562 -1.40625 2.390625 -1.632812 2.421875 -2.09375 C 2.441406 -2.1875 2.46875 -2.28125 2.5 -2.375 C 2.507812 -2.425781 2.519531 -2.472656 2.53125 -2.515625 C 2.570312 -2.679688 2.582031 -2.773438 2.5625 -2.796875 C 2.550781 -2.816406 2.5 -2.769531 2.40625 -2.65625 C 2.382812 -2.632812 2.363281 -2.609375 2.34375 -2.578125 C 2.195312 -2.410156 2.050781 -2.25 1.90625 -2.09375 C 1.632812 -1.78125 1.328125 -1.519531 0.984375 -1.3125 C 0.773438 -1.195312 0.554688 -1.132812 0.328125 -1.125 C -0.046875 -1.101562 -0.253906 -1.273438 -0.296875 -1.640625 C -0.316406 -1.785156 -0.3125 -1.929688 -0.28125 -2.078125 C -0.125 -2.671875 0.179688 -3.117188 0.640625 -3.421875 C 1.097656 -3.734375 1.625 -3.84375 2.21875 -3.75 C 2.382812 -3.707031 2.507812 -3.753906 2.59375 -3.890625 C 2.625 -3.941406 2.65625 -4 2.6875 -4.0625 C 2.84375 -4.332031 3 -4.601562 3.15625 -4.875 C 3.4375 -5.40625 3.726562 -5.941406 4.03125 -6.484375 C 4.257812 -6.898438 4.492188 -7.320312 4.734375 -7.75 C 4.804688 -7.882812 4.882812 -8.015625 4.96875 -8.140625 C 5 -8.191406 5.039062 -8.222656 5.09375 -8.234375 C 5.15625 -8.253906 5.21875 -8.265625 5.28125 -8.265625 C 5.300781 -8.265625 5.316406 -8.265625 5.328125 -8.265625 C 5.398438 -8.265625 5.457031 -8.242188 5.5 -8.203125 C 5.539062 -8.171875 5.550781 -8.125 5.53125 -8.0625 C 5.488281 -7.914062 5.4375 -7.78125 5.375 -7.65625 C 5.050781 -7.007812 4.742188 -6.359375 4.453125 -5.703125 C 4.171875 -5.046875 3.894531 -4.382812 3.625 -3.71875 C 3.53125 -3.488281 3.4375 -3.257812 3.34375 -3.03125 C 3.226562 -2.757812 3.132812 -2.484375 3.0625 -2.203125 C 3.039062 -2.140625 3.03125 -2.078125 3.03125 -2.015625 C 3.03125 -1.953125 3.054688 -1.898438 3.109375 -1.859375 C 3.148438 -1.835938 3.191406 -1.832031 3.234375 -1.84375 C 3.273438 -1.863281 3.320312 -1.882812 3.375 -1.90625 C 3.375 -1.914062 3.382812 -1.921875 3.40625 -1.921875 C 3.738281 -2.117188 4.039062 -2.351562 4.3125 -2.625 C 4.351562 -2.664062 4.398438 -2.703125 4.453125 -2.734375 C 4.503906 -2.765625 4.566406 -2.769531 4.640625 -2.75 Z M 2.0625 -3.09375 C 2.09375 -3.15625 2.097656 -3.210938 2.078125 -3.265625 C 2.066406 -3.328125 2.03125 -3.367188 1.96875 -3.390625 C 1.84375 -3.460938 1.707031 -3.472656 1.5625 -3.421875 C 1.207031 -3.316406 0.90625 -3.113281 0.65625 -2.8125 C 0.414062 -2.507812 0.285156 -2.171875 0.265625 -1.796875 C 0.273438 -1.785156 0.28125 -1.773438 0.28125 -1.765625 C 0.28125 -1.734375 0.28125 -1.703125 0.28125 -1.671875 C 0.3125 -1.503906 0.414062 -1.472656 0.59375 -1.578125 C 0.769531 -1.679688 0.960938 -1.847656 1.171875 -2.078125 C 1.390625 -2.304688 1.582031 -2.523438 1.75 -2.734375 C 1.925781 -2.941406 2.03125 -3.0625 2.0625 -3.09375 Z M 2.0625 -3.09375 "/></g></g><g style="fill:#151f28;fill-opacity:1;"><g transform="translate(52.823023, 43.248847)"><path style="stroke:none" d="M 2.078125 -2.203125 C 1.890625 -1.984375 1.664062 -1.78125 1.40625 -1.59375 C 1.15625 -1.40625 0.867188 -1.28125 0.546875 -1.21875 C 0.234375 -1.15625 -0.0078125 -1.175781 -0.1875 -1.28125 C -0.363281 -1.394531 -0.398438 -1.644531 -0.296875 -2.03125 C -0.160156 -2.425781 0.03125 -2.804688 0.28125 -3.171875 C 0.332031 -3.242188 0.410156 -3.296875 0.515625 -3.328125 C 0.585938 -3.347656 0.65625 -3.332031 0.71875 -3.28125 C 0.78125 -3.238281 0.800781 -3.1875 0.78125 -3.125 C 0.726562 -3 0.671875 -2.875 0.609375 -2.75 C 0.546875 -2.625 0.503906 -2.539062 0.484375 -2.5 C 0.359375 -2.28125 0.273438 -2.046875 0.234375 -1.796875 C 0.234375 -1.660156 0.414062 -1.648438 0.78125 -1.765625 C 1.15625 -1.890625 1.519531 -2.113281 1.875 -2.4375 C 2.226562 -2.769531 2.394531 -2.867188 2.375 -2.734375 C 2.363281 -2.597656 2.265625 -2.421875 2.078125 -2.203125 Z M 1.171875 -3.953125 C 1.148438 -3.941406 1.113281 -3.925781 1.0625 -3.90625 C 1.007812 -3.882812 0.953125 -3.867188 0.890625 -3.859375 C 0.828125 -3.847656 0.773438 -3.859375 0.734375 -3.890625 C 0.703125 -3.921875 0.703125 -3.976562 0.734375 -4.0625 C 0.796875 -4.207031 0.851562 -4.332031 0.90625 -4.4375 C 0.96875 -4.550781 1.050781 -4.671875 1.15625 -4.796875 C 1.21875 -4.859375 1.285156 -4.890625 1.359375 -4.890625 C 1.429688 -4.898438 1.488281 -4.882812 1.53125 -4.84375 C 1.582031 -4.800781 1.597656 -4.738281 1.578125 -4.65625 C 1.503906 -4.382812 1.367188 -4.148438 1.171875 -3.953125 Z M 1.171875 -3.953125 "/></g></g><g style="fill:#151f28;fill-opacity:1;"><g transform="translate(56.467567, 43.248847)"><path style="stroke:none" d="M 0.828125 -1.234375 L 0.8125 -1.234375 C 0.3125 -1.242188 -0.015625 -1.359375 -0.171875 -1.578125 C -0.335938 -1.796875 -0.332031 -2.085938 -0.15625 -2.453125 C -0.0078125 -2.722656 0.171875 -2.960938 0.390625 -3.171875 C 0.460938 -3.234375 0.539062 -3.285156 0.625 -3.328125 C 0.707031 -3.367188 0.800781 -3.390625 0.90625 -3.390625 C 0.957031 -3.398438 1.023438 -3.390625 1.109375 -3.359375 C 1.128906 -3.359375 1.148438 -3.351562 1.171875 -3.34375 C 1.234375 -3.351562 1.289062 -3.367188 1.34375 -3.390625 C 1.363281 -3.398438 1.382812 -3.410156 1.40625 -3.421875 C 1.519531 -3.460938 1.640625 -3.484375 1.765625 -3.484375 C 1.816406 -3.484375 1.875 -3.484375 1.9375 -3.484375 C 2.132812 -3.453125 2.285156 -3.363281 2.390625 -3.21875 C 2.503906 -3.082031 2.546875 -2.910156 2.515625 -2.703125 C 2.492188 -2.585938 2.453125 -2.472656 2.390625 -2.359375 C 1.992188 -1.640625 1.484375 -1.265625 0.859375 -1.234375 Z M 1.65625 -3.109375 C 1.382812 -3.117188 1.140625 -3.039062 0.921875 -2.875 C 0.703125 -2.707031 0.539062 -2.507812 0.4375 -2.28125 C 0.332031 -2.0625 0.300781 -1.878906 0.34375 -1.734375 C 0.394531 -1.597656 0.546875 -1.5625 0.796875 -1.625 C 1.066406 -1.707031 1.304688 -1.863281 1.515625 -2.09375 C 1.734375 -2.332031 1.863281 -2.550781 1.90625 -2.75 C 1.957031 -2.957031 1.875 -3.078125 1.65625 -3.109375 Z M 1.65625 -3.109375 "/></g></g><g style="fill:#151f28;fill-opacity:1;"><g transform="translate(60.849078, 43.248847)"><path style="stroke:none" d=""/></g></g><g style="fill:#151f28;fill-opacity:1;"><g transform="translate(66.406598, 43.248847)"><path style="stroke:none" d="M 20.703125 2.078125 C 20.703125 2.078125 20.710938 2.078125 20.734375 2.078125 C 20.785156 2.078125 20.835938 2.082031 20.890625 2.09375 C 20.941406 2.113281 20.984375 2.148438 21.015625 2.203125 C 21.035156 2.210938 21.046875 2.226562 21.046875 2.25 C 21.054688 2.28125 21.054688 2.304688 21.046875 2.328125 C 21.046875 2.347656 21.035156 2.367188 21.015625 2.390625 C 20.992188 2.410156 20.976562 2.421875 20.96875 2.421875 C 20.875 2.429688 20.773438 2.429688 20.671875 2.421875 C 18.335938 1.929688 15.75 1.613281 12.90625 1.46875 C 10.0625 1.332031 7.4375 1.390625 5.03125 1.640625 C 4.914062 1.640625 4.8125 1.648438 4.71875 1.671875 C 4.625 1.679688 4.535156 1.6875 4.453125 1.6875 C 4.179688 1.726562 3.953125 1.847656 3.765625 2.046875 C 3.328125 2.515625 2.851562 2.929688 2.34375 3.296875 C 1.925781 3.566406 1.472656 3.71875 0.984375 3.75 C 0.785156 3.757812 0.59375 3.726562 0.40625 3.65625 C 0.238281 3.582031 0.128906 3.46875 0.078125 3.3125 C 0.0234375 3.15625 0.046875 2.992188 0.140625 2.828125 C 0.296875 2.578125 0.546875 2.363281 0.890625 2.1875 C 1.242188 2.007812 1.617188 1.863281 2.015625 1.75 C 2.421875 1.644531 2.757812 1.566406 3.03125 1.515625 C 3.40625 1.441406 3.707031 1.257812 3.9375 0.96875 C 5.050781 -0.382812 6.117188 -1.914062 7.140625 -3.625 C 8.171875 -5.332031 9.117188 -7.085938 9.984375 -8.890625 C 10.847656 -10.703125 11.59375 -12.4375 12.21875 -14.09375 C 12.238281 -14.175781 12.269531 -14.25 12.3125 -14.3125 C 12.363281 -14.375 12.441406 -14.421875 12.546875 -14.453125 C 12.640625 -14.460938 12.71875 -14.441406 12.78125 -14.390625 C 12.851562 -14.335938 12.878906 -14.269531 12.859375 -14.1875 C 12.828125 -13.96875 12.773438 -13.753906 12.703125 -13.546875 C 12.109375 -11.972656 11.398438 -10.335938 10.578125 -8.640625 C 9.765625 -6.941406 8.875 -5.28125 7.90625 -3.65625 C 6.945312 -2.039062 5.957031 -0.582031 4.9375 0.71875 C 4.726562 0.988281 4.664062 1.144531 4.75 1.1875 C 4.832031 1.238281 4.992188 1.238281 5.234375 1.1875 C 5.296875 1.175781 5.351562 1.171875 5.40625 1.171875 C 7.320312 0.953125 9.304688 0.882812 11.359375 0.96875 C 13.421875 1.050781 15.453125 1.234375 17.453125 1.515625 C 18.160156 1.609375 18.851562 1.722656 19.53125 1.859375 C 19.925781 1.929688 20.316406 2.003906 20.703125 2.078125 Z M 1.28125 3.25 C 1.863281 3.019531 2.347656 2.644531 2.734375 2.125 C 2.097656 2.175781 1.535156 2.375 1.046875 2.71875 C 0.890625 2.832031 0.796875 2.941406 0.765625 3.046875 C 0.742188 3.160156 0.773438 3.238281 0.859375 3.28125 C 0.953125 3.332031 1.09375 3.320312 1.28125 3.25 Z M 1.28125 3.25 "/></g></g><g style="fill:#151f28;fill-opacity:1;"><g transform="translate(77.687366, 43.248847)"><path style="stroke:none" d="M 2.96875 -2 C 2.769531 -1.800781 2.535156 -1.628906 2.265625 -1.484375 C 2.003906 -1.347656 1.78125 -1.257812 1.59375 -1.21875 C 1.414062 -1.175781 1.234375 -1.148438 1.046875 -1.140625 C 0.734375 -1.128906 0.445312 -1.171875 0.1875 -1.265625 C -0.226562 -1.441406 -0.375 -1.769531 -0.25 -2.25 C -0.125 -2.664062 0.125 -2.988281 0.5 -3.21875 C 0.875 -3.445312 1.257812 -3.5625 1.65625 -3.5625 C 1.757812 -3.5625 1.859375 -3.550781 1.953125 -3.53125 C 2.097656 -3.476562 2.191406 -3.390625 2.234375 -3.265625 C 2.285156 -3.140625 2.257812 -3 2.15625 -2.84375 C 1.9375 -2.507812 1.632812 -2.320312 1.25 -2.28125 C 1 -2.257812 0.753906 -2.273438 0.515625 -2.328125 C 0.460938 -2.328125 0.421875 -2.3125 0.390625 -2.28125 C 0.359375 -2.25 0.335938 -2.210938 0.328125 -2.171875 C 0.253906 -1.867188 0.347656 -1.675781 0.609375 -1.59375 C 0.921875 -1.488281 1.242188 -1.488281 1.578125 -1.59375 C 1.972656 -1.71875 2.34375 -1.945312 2.6875 -2.28125 C 3.039062 -2.625 3.242188 -2.78125 3.296875 -2.75 C 3.359375 -2.726562 3.378906 -2.664062 3.359375 -2.5625 C 3.304688 -2.394531 3.175781 -2.207031 2.96875 -2 Z M 0.75 -2.84375 C 0.726562 -2.820312 0.710938 -2.796875 0.703125 -2.765625 C 0.691406 -2.734375 0.703125 -2.707031 0.734375 -2.6875 C 0.859375 -2.613281 0.992188 -2.585938 1.140625 -2.609375 C 1.285156 -2.628906 1.40625 -2.679688 1.5 -2.765625 C 1.601562 -2.859375 1.644531 -2.96875 1.625 -3.09375 C 1.613281 -3.144531 1.585938 -3.175781 1.546875 -3.1875 C 1.515625 -3.195312 1.476562 -3.195312 1.4375 -3.1875 C 1.1875 -3.144531 0.957031 -3.03125 0.75 -2.84375 Z M 0.75 -2.84375 "/></g></g><g style="fill:#151f28;fill-opacity:1;"><g transform="translate(82.335439, 43.248847)"><path style="stroke:none" d="M 4.609375 -2.796875 C 4.640625 -2.804688 4.671875 -2.804688 4.703125 -2.796875 C 4.742188 -2.796875 4.769531 -2.78125 4.78125 -2.75 C 4.800781 -2.71875 4.800781 -2.679688 4.78125 -2.640625 C 4.757812 -2.597656 4.726562 -2.566406 4.6875 -2.546875 C 4.375 -2.398438 4.054688 -2.242188 3.734375 -2.078125 C 3.359375 -1.878906 2.984375 -1.6875 2.609375 -1.5 C 2.554688 -1.476562 2.503906 -1.453125 2.453125 -1.421875 C 2.367188 -1.378906 2.285156 -1.335938 2.203125 -1.296875 C 2.003906 -1.203125 1.875 -1.054688 1.8125 -0.859375 C 1.644531 -0.378906 1.472656 0.0859375 1.296875 0.546875 C 1.054688 1.171875 0.757812 1.769531 0.40625 2.34375 C 0.207031 2.664062 -0.03125 2.953125 -0.3125 3.203125 C -0.65625 3.515625 -1.046875 3.710938 -1.484375 3.796875 C -2.203125 3.941406 -2.894531 3.894531 -3.5625 3.65625 C -3.84375 3.5625 -4.082031 3.40625 -4.28125 3.1875 C -4.539062 2.894531 -4.550781 2.582031 -4.3125 2.25 C -4.207031 2.113281 -4.085938 1.984375 -3.953125 1.859375 C -3.648438 1.597656 -3.328125 1.359375 -2.984375 1.140625 C -1.753906 0.347656 -0.484375 -0.378906 0.828125 -1.046875 C 0.960938 -1.109375 1.097656 -1.179688 1.234375 -1.265625 C 1.253906 -1.273438 1.28125 -1.304688 1.3125 -1.359375 C 1.351562 -1.421875 1.382812 -1.476562 1.40625 -1.53125 C 1.425781 -1.59375 1.421875 -1.632812 1.390625 -1.65625 C 1.359375 -1.6875 1.285156 -1.675781 1.171875 -1.625 C 1.128906 -1.613281 1.085938 -1.597656 1.046875 -1.578125 C 0.953125 -1.523438 0.851562 -1.476562 0.75 -1.4375 C 0.15625 -1.300781 -0.140625 -1.53125 -0.140625 -2.125 C -0.128906 -2.488281 -0.0234375 -2.816406 0.171875 -3.109375 C 0.378906 -3.398438 0.640625 -3.628906 0.953125 -3.796875 C 1.273438 -3.960938 1.617188 -4.023438 1.984375 -3.984375 C 2.023438 -3.984375 2.066406 -3.976562 2.109375 -3.96875 C 2.203125 -3.957031 2.300781 -3.953125 2.40625 -3.953125 C 2.507812 -3.953125 2.617188 -3.972656 2.734375 -4.015625 C 2.847656 -4.066406 2.929688 -4.054688 2.984375 -3.984375 C 3.046875 -3.910156 3.054688 -3.816406 3.015625 -3.703125 C 2.910156 -3.484375 2.8125 -3.265625 2.71875 -3.046875 C 2.644531 -2.910156 2.578125 -2.769531 2.515625 -2.625 C 2.453125 -2.46875 2.382812 -2.304688 2.3125 -2.140625 C 2.21875 -1.929688 2.203125 -1.820312 2.265625 -1.8125 C 2.335938 -1.800781 2.453125 -1.835938 2.609375 -1.921875 C 2.628906 -1.929688 2.65625 -1.941406 2.6875 -1.953125 C 2.976562 -2.085938 3.269531 -2.222656 3.5625 -2.359375 C 3.769531 -2.453125 3.976562 -2.550781 4.1875 -2.65625 C 4.320312 -2.71875 4.460938 -2.765625 4.609375 -2.796875 Z M 0.90625 0 C 1.007812 -0.300781 1.050781 -0.5 1.03125 -0.59375 C 1.019531 -0.6875 0.953125 -0.710938 0.828125 -0.671875 C 0.710938 -0.628906 0.5625 -0.546875 0.375 -0.421875 C 0.25 -0.347656 0.113281 -0.269531 -0.03125 -0.1875 C -0.914062 0.28125 -1.773438 0.789062 -2.609375 1.34375 C -2.972656 1.550781 -3.300781 1.8125 -3.59375 2.125 C -3.90625 2.445312 -3.894531 2.738281 -3.5625 3 C -3.375 3.144531 -3.160156 3.25 -2.921875 3.3125 C -2.691406 3.375 -2.429688 3.40625 -2.140625 3.40625 C -1.816406 3.425781 -1.515625 3.363281 -1.234375 3.21875 C -0.953125 3.070312 -0.6875 2.851562 -0.4375 2.5625 C -0.300781 2.375 -0.164062 2.175781 -0.03125 1.96875 C 0.351562 1.34375 0.664062 0.6875 0.90625 0 Z M 0.546875 -1.84375 C 0.640625 -1.800781 0.769531 -1.832031 0.9375 -1.9375 C 1.113281 -2.039062 1.289062 -2.1875 1.46875 -2.375 C 1.65625 -2.5625 1.800781 -2.75 1.90625 -2.9375 C 2.007812 -3.125 2.035156 -3.285156 1.984375 -3.421875 C 1.972656 -3.460938 1.953125 -3.5 1.921875 -3.53125 C 1.867188 -3.59375 1.804688 -3.617188 1.734375 -3.609375 C 1.671875 -3.609375 1.597656 -3.597656 1.515625 -3.578125 C 1.265625 -3.484375 1.039062 -3.3125 0.84375 -3.0625 C 0.644531 -2.820312 0.515625 -2.578125 0.453125 -2.328125 C 0.390625 -2.085938 0.421875 -1.925781 0.546875 -1.84375 Z M 0.546875 -1.84375 "/></g></g><g style="fill:#151f28;fill-opacity:1;"><g transform="translate(88.405177, 43.248847)"><path style="stroke:none" d="M 3.796875 -2.65625 C 3.878906 -2.613281 3.882812 -2.503906 3.8125 -2.328125 C 3.707031 -2.191406 3.597656 -2.066406 3.484375 -1.953125 C 3.367188 -1.835938 3.242188 -1.734375 3.109375 -1.640625 C 3.097656 -1.640625 3.09375 -1.632812 3.09375 -1.625 C 3 -1.5625 2.90625 -1.507812 2.8125 -1.46875 C 1.976562 -1.164062 1.550781 -1.34375 1.53125 -2 C 1.195312 -1.707031 0.972656 -1.523438 0.859375 -1.453125 C 0.578125 -1.296875 0.273438 -1.222656 -0.046875 -1.234375 C -0.273438 -1.253906 -0.429688 -1.328125 -0.515625 -1.453125 C -0.609375 -1.585938 -0.601562 -1.765625 -0.5 -1.984375 C -0.34375 -2.335938 -0.125 -2.648438 0.15625 -2.921875 C 0.476562 -3.234375 0.84375 -3.476562 1.25 -3.65625 C 1.46875 -3.769531 1.695312 -3.8125 1.9375 -3.78125 C 2.164062 -3.769531 2.304688 -3.640625 2.359375 -3.390625 C 2.378906 -3.304688 2.363281 -3.238281 2.3125 -3.1875 C 2.226562 -3.113281 2.132812 -3.097656 2.03125 -3.140625 C 2.03125 -3.140625 2.019531 -3.140625 2 -3.140625 C 1.988281 -3.140625 1.984375 -3.144531 1.984375 -3.15625 C 1.878906 -3.289062 1.773438 -3.347656 1.671875 -3.328125 C 1.566406 -3.304688 1.457031 -3.257812 1.34375 -3.1875 C 0.8125 -2.875 0.414062 -2.4375 0.15625 -1.875 C 0.132812 -1.851562 0.125 -1.828125 0.125 -1.796875 C 0.125 -1.765625 0.132812 -1.742188 0.15625 -1.734375 C 0.21875 -1.710938 0.285156 -1.710938 0.359375 -1.734375 C 0.429688 -1.765625 0.503906 -1.804688 0.578125 -1.859375 C 0.660156 -1.921875 0.726562 -1.972656 0.78125 -2.015625 C 0.789062 -2.023438 0.796875 -2.03125 0.796875 -2.03125 C 1.046875 -2.25 1.296875 -2.46875 1.546875 -2.6875 C 1.648438 -2.800781 1.78125 -2.863281 1.9375 -2.875 C 2.164062 -2.875 2.265625 -2.773438 2.234375 -2.578125 C 2.210938 -2.492188 2.1875 -2.414062 2.15625 -2.34375 C 2.070312 -2.007812 2.070312 -1.8125 2.15625 -1.75 C 2.238281 -1.695312 2.363281 -1.695312 2.53125 -1.75 C 2.707031 -1.8125 2.878906 -1.921875 3.046875 -2.078125 C 3.222656 -2.242188 3.367188 -2.394531 3.484375 -2.53125 C 3.609375 -2.664062 3.710938 -2.707031 3.796875 -2.65625 Z M 3.796875 -2.65625 "/></g></g><g style="fill:#151f28;fill-opacity:1;"><g transform="translate(93.476613, 43.248847)"><path style="stroke:none" d="M 2.53125 -2.5 C 2.644531 -2.613281 2.738281 -2.675781 2.8125 -2.6875 C 2.894531 -2.695312 2.945312 -2.679688 2.96875 -2.640625 C 2.988281 -2.609375 2.972656 -2.5625 2.921875 -2.5 C 2.617188 -2.125 2.273438 -1.800781 1.890625 -1.53125 C 1.515625 -1.269531 1.125 -1.117188 0.71875 -1.078125 C 0.3125 -1.035156 0.0664062 -1.253906 -0.015625 -1.734375 C -0.078125 -2.210938 0.207031 -3.179688 0.84375 -4.640625 C 1.488281 -6.109375 2 -7.3125 2.375 -8.25 C 2.40625 -8.332031 2.453125 -8.40625 2.515625 -8.46875 C 2.597656 -8.550781 2.695312 -8.570312 2.8125 -8.53125 C 2.851562 -8.507812 2.890625 -8.476562 2.921875 -8.4375 C 2.960938 -8.40625 2.976562 -8.335938 2.96875 -8.234375 C 1.320312 -4.328125 0.523438 -2.203125 0.578125 -1.859375 C 0.628906 -1.523438 0.847656 -1.441406 1.234375 -1.609375 C 1.617188 -1.785156 1.914062 -1.960938 2.125 -2.140625 C 2.34375 -2.316406 2.476562 -2.4375 2.53125 -2.5 Z M 2.53125 -2.5 "/></g></g><g style="fill:#151f28;fill-opacity:1;"><g transform="translate(97.690869, 43.248847)"><path style="stroke:none" d="M 2.96875 -2 C 2.769531 -1.800781 2.535156 -1.628906 2.265625 -1.484375 C 2.003906 -1.347656 1.78125 -1.257812 1.59375 -1.21875 C 1.414062 -1.175781 1.234375 -1.148438 1.046875 -1.140625 C 0.734375 -1.128906 0.445312 -1.171875 0.1875 -1.265625 C -0.226562 -1.441406 -0.375 -1.769531 -0.25 -2.25 C -0.125 -2.664062 0.125 -2.988281 0.5 -3.21875 C 0.875 -3.445312 1.257812 -3.5625 1.65625 -3.5625 C 1.757812 -3.5625 1.859375 -3.550781 1.953125 -3.53125 C 2.097656 -3.476562 2.191406 -3.390625 2.234375 -3.265625 C 2.285156 -3.140625 2.257812 -3 2.15625 -2.84375 C 1.9375 -2.507812 1.632812 -2.320312 1.25 -2.28125 C 1 -2.257812 0.753906 -2.273438 0.515625 -2.328125 C 0.460938 -2.328125 0.421875 -2.3125 0.390625 -2.28125 C 0.359375 -2.25 0.335938 -2.210938 0.328125 -2.171875 C 0.253906 -1.867188 0.347656 -1.675781 0.609375 -1.59375 C 0.921875 -1.488281 1.242188 -1.488281 1.578125 -1.59375 C 1.972656 -1.71875 2.34375 -1.945312 2.6875 -2.28125 C 3.039062 -2.625 3.242188 -2.78125 3.296875 -2.75 C 3.359375 -2.726562 3.378906 -2.664062 3.359375 -2.5625 C 3.304688 -2.394531 3.175781 -2.207031 2.96875 -2 Z M 0.75 -2.84375 C 0.726562 -2.820312 0.710938 -2.796875 0.703125 -2.765625 C 0.691406 -2.734375 0.703125 -2.707031 0.734375 -2.6875 C 0.859375 -2.613281 0.992188 -2.585938 1.140625 -2.609375 C 1.285156 -2.628906 1.40625 -2.679688 1.5 -2.765625 C 1.601562 -2.859375 1.644531 -2.96875 1.625 -3.09375 C 1.613281 -3.144531 1.585938 -3.175781 1.546875 -3.1875 C 1.515625 -3.195312 1.476562 -3.195312 1.4375 -3.1875 C 1.1875 -3.144531 0.957031 -3.03125 0.75 -2.84375 Z M 0.75 -2.84375 "/></g></g><g style="fill:#151f28;fill-opacity:1;"><g transform="translate(102.338942, 43.248847)"><path style="stroke:none" d=""/></g></g><g style="fill:#151f28;fill-opacity:1;"><g transform="translate(107.896462, 43.248847)"><path style="stroke:none" d="M 28.25 -4.78125 C 27.582031 -4.851562 26.910156 -4.890625 26.234375 -4.890625 C 25.941406 -4.898438 25.640625 -4.910156 25.328125 -4.921875 C 22.535156 -5.035156 19.738281 -5.0625 16.9375 -5 C 16.800781 -5 16.6875 -5 16.59375 -5 C 16.4375 -5.007812 16.320312 -5.007812 16.25 -5 C 16.1875 -4.988281 16.132812 -4.953125 16.09375 -4.890625 C 16.050781 -4.828125 16 -4.722656 15.9375 -4.578125 C 15.90625 -4.492188 15.863281 -4.390625 15.8125 -4.265625 C 15.34375 -3.242188 14.910156 -2.207031 14.515625 -1.15625 C 14.265625 -0.476562 14.070312 0.21875 13.9375 0.9375 C 13.882812 1.15625 13.863281 1.367188 13.875 1.578125 C 13.894531 1.796875 13.988281 1.988281 14.15625 2.15625 C 14.1875 2.164062 14.195312 2.179688 14.1875 2.203125 C 14.175781 2.234375 14.160156 2.257812 14.140625 2.28125 C 14.117188 2.3125 14.09375 2.332031 14.0625 2.34375 C 13.644531 2.40625 13.394531 2.253906 13.3125 1.890625 C 13.269531 1.691406 13.265625 1.484375 13.296875 1.265625 C 13.296875 1.253906 13.296875 1.242188 13.296875 1.234375 C 13.328125 0.867188 13.390625 0.503906 13.484375 0.140625 C 13.585938 -0.210938 13.695312 -0.570312 13.8125 -0.9375 C 14.207031 -2.03125 14.644531 -3.101562 15.125 -4.15625 C 15.144531 -4.207031 15.160156 -4.253906 15.171875 -4.296875 C 15.203125 -4.347656 15.226562 -4.398438 15.25 -4.453125 C 15.289062 -4.535156 15.328125 -4.613281 15.359375 -4.6875 C 15.390625 -4.757812 15.398438 -4.835938 15.390625 -4.921875 C 15.359375 -4.953125 15.320312 -4.972656 15.28125 -4.984375 C 15.238281 -4.992188 15.203125 -4.992188 15.171875 -4.984375 C 15.160156 -4.984375 15.148438 -4.984375 15.140625 -4.984375 C 14.816406 -4.984375 14.488281 -4.976562 14.15625 -4.96875 C 14.0625 -4.96875 13.960938 -4.96875 13.859375 -4.96875 C 13.742188 -4.96875 13.644531 -4.929688 13.5625 -4.859375 C 13.476562 -4.785156 13.394531 -4.703125 13.3125 -4.609375 C 13.21875 -4.472656 13.117188 -4.34375 13.015625 -4.21875 C 12.585938 -3.664062 12.15625 -3.125 11.71875 -2.59375 C 11.070312 -1.8125 10.394531 -1.054688 9.6875 -0.328125 C 8.988281 0.390625 8.25 1.066406 7.46875 1.703125 C 6.476562 2.515625 5.425781 3.234375 4.3125 3.859375 C 2.613281 4.765625 0.832031 5.195312 -1.03125 5.15625 C -2.789062 5.113281 -4.375 4.640625 -5.78125 3.734375 C -6.175781 3.472656 -6.53125 3.164062 -6.84375 2.8125 C -7.050781 2.5625 -7.210938 2.285156 -7.328125 1.984375 C -7.453125 1.691406 -7.515625 1.375 -7.515625 1.03125 C -7.492188 0.613281 -7.394531 0.226562 -7.21875 -0.125 C -7.050781 -0.476562 -6.8125 -0.800781 -6.5 -1.09375 C -6.082031 -1.5 -5.617188 -1.84375 -5.109375 -2.125 C -4.617188 -2.40625 -4.113281 -2.648438 -3.59375 -2.859375 C -3.070312 -3.078125 -2.546875 -3.269531 -2.015625 -3.4375 C -1.160156 -3.71875 -0.296875 -3.953125 0.578125 -4.140625 C 1.453125 -4.328125 2.328125 -4.488281 3.203125 -4.625 C 5.296875 -4.90625 7.394531 -5.09375 9.5 -5.1875 C 10.570312 -5.257812 11.640625 -5.296875 12.703125 -5.296875 C 12.992188 -5.285156 13.222656 -5.410156 13.390625 -5.671875 C 13.671875 -6.066406 13.953125 -6.460938 14.234375 -6.859375 C 14.679688 -7.472656 15.117188 -8.097656 15.546875 -8.734375 C 17.535156 -11.710938 19.441406 -14.738281 21.265625 -17.8125 C 21.421875 -18.070312 21.570312 -18.332031 21.71875 -18.59375 C 21.789062 -18.726562 21.863281 -18.867188 21.9375 -19.015625 C 22.03125 -19.191406 22.175781 -19.289062 22.375 -19.3125 C 22.476562 -19.3125 22.554688 -19.28125 22.609375 -19.21875 C 22.660156 -19.15625 22.664062 -19.070312 22.625 -18.96875 C 22.59375 -18.882812 22.550781 -18.804688 22.5 -18.734375 C 22.195312 -18.203125 21.929688 -17.664062 21.703125 -17.125 C 21.617188 -16.9375 21.535156 -16.75 21.453125 -16.5625 C 20.648438 -14.8125 19.84375 -13.0625 19.03125 -11.3125 C 18.40625 -9.96875 17.78125 -8.617188 17.15625 -7.265625 C 16.96875 -6.859375 16.785156 -6.457031 16.609375 -6.0625 C 16.578125 -5.976562 16.539062 -5.898438 16.5 -5.828125 C 16.488281 -5.804688 16.484375 -5.785156 16.484375 -5.765625 C 16.453125 -5.710938 16.425781 -5.660156 16.40625 -5.609375 C 16.394531 -5.554688 16.40625 -5.503906 16.4375 -5.453125 C 16.488281 -5.410156 16.546875 -5.382812 16.609375 -5.375 C 16.679688 -5.375 16.75 -5.375 16.8125 -5.375 C 16.851562 -5.382812 16.894531 -5.390625 16.9375 -5.390625 C 17.226562 -5.378906 17.519531 -5.378906 17.8125 -5.390625 C 18.207031 -5.390625 18.601562 -5.382812 19 -5.375 C 21.175781 -5.332031 23.351562 -5.285156 25.53125 -5.234375 C 26.25 -5.222656 26.957031 -5.191406 27.65625 -5.140625 C 27.71875 -5.140625 27.785156 -5.140625 27.859375 -5.140625 C 27.898438 -5.140625 27.941406 -5.140625 27.984375 -5.140625 C 28.078125 -5.140625 28.164062 -5.128906 28.25 -5.109375 C 28.332031 -5.097656 28.414062 -5.066406 28.5 -5.015625 C 28.507812 -5.003906 28.515625 -4.988281 28.515625 -4.96875 C 28.523438 -4.945312 28.53125 -4.929688 28.53125 -4.921875 C 28.53125 -4.890625 28.519531 -4.863281 28.5 -4.84375 C 28.476562 -4.832031 28.460938 -4.820312 28.453125 -4.8125 C 28.390625 -4.789062 28.320312 -4.78125 28.25 -4.78125 Z M 12.671875 -4.71875 C 12.691406 -4.769531 12.691406 -4.8125 12.671875 -4.84375 C 12.648438 -4.882812 12.617188 -4.90625 12.578125 -4.90625 C 12.503906 -4.914062 12.429688 -4.914062 12.359375 -4.90625 C 12.316406 -4.90625 12.28125 -4.90625 12.25 -4.90625 C 9.613281 -4.875 6.976562 -4.691406 4.34375 -4.359375 C 3.34375 -4.242188 2.34375 -4.082031 1.34375 -3.875 C 0.34375 -3.675781 -0.644531 -3.429688 -1.625 -3.140625 C -2.144531 -2.972656 -2.660156 -2.785156 -3.171875 -2.578125 C -3.679688 -2.367188 -4.175781 -2.125 -4.65625 -1.84375 C -5.164062 -1.5625 -5.625 -1.21875 -6.03125 -0.8125 C -6.519531 -0.3125 -6.796875 0.21875 -6.859375 0.78125 C -6.921875 1.34375 -6.769531 1.882812 -6.40625 2.40625 C -6.132812 2.769531 -5.8125 3.082031 -5.4375 3.34375 C -4.082031 4.3125 -2.460938 4.804688 -0.578125 4.828125 C -0.0976562 4.828125 0.453125 4.765625 1.078125 4.640625 C 1.691406 4.503906 2.285156 4.3125 2.859375 4.0625 C 3.441406 3.8125 4.003906 3.519531 4.546875 3.1875 C 5.890625 2.363281 7.132812 1.398438 8.28125 0.296875 C 9.070312 -0.441406 9.816406 -1.21875 10.515625 -2.03125 C 11.210938 -2.851562 11.890625 -3.691406 12.546875 -4.546875 C 12.585938 -4.609375 12.628906 -4.664062 12.671875 -4.71875 Z M 15.859375 -5.796875 C 16.367188 -6.953125 16.890625 -8.097656 17.421875 -9.234375 C 17.453125 -9.296875 17.535156 -9.476562 17.671875 -9.78125 C 17.804688 -10.082031 17.960938 -10.425781 18.140625 -10.8125 C 18.328125 -11.207031 18.492188 -11.582031 18.640625 -11.9375 C 18.785156 -12.289062 18.890625 -12.554688 18.953125 -12.734375 C 19.015625 -12.910156 19 -12.925781 18.90625 -12.78125 C 18.875 -12.75 18.851562 -12.71875 18.84375 -12.6875 C 18.757812 -12.5625 18.679688 -12.441406 18.609375 -12.328125 C 17.972656 -11.335938 17.332031 -10.347656 16.6875 -9.359375 C 16.039062 -8.367188 15.375 -7.394531 14.6875 -6.4375 C 14.613281 -6.351562 14.539062 -6.257812 14.46875 -6.15625 C 14.34375 -5.976562 14.210938 -5.796875 14.078125 -5.609375 C 14.023438 -5.535156 14.007812 -5.472656 14.03125 -5.421875 C 14.0625 -5.367188 14.117188 -5.34375 14.203125 -5.34375 C 14.335938 -5.34375 14.472656 -5.347656 14.609375 -5.359375 C 14.828125 -5.367188 15.039062 -5.375 15.25 -5.375 C 15.414062 -5.375 15.539062 -5.410156 15.625 -5.484375 C 15.71875 -5.554688 15.796875 -5.660156 15.859375 -5.796875 Z M 15.859375 -5.796875 "/></g></g><g style="fill:#151f28;fill-opacity:1;"><g transform="translate(126.071266, 43.248847)"><path style="stroke:none" d="M 5.46875 -2.625 C 5.582031 -2.695312 5.675781 -2.710938 5.75 -2.671875 C 5.820312 -2.640625 5.796875 -2.535156 5.671875 -2.359375 C 5.515625 -2.148438 5.238281 -1.925781 4.84375 -1.6875 C 4.445312 -1.457031 4.097656 -1.359375 3.796875 -1.390625 C 3.492188 -1.421875 3.40625 -1.644531 3.53125 -2.0625 C 3.65625 -2.476562 3.722656 -2.710938 3.734375 -2.765625 C 3.742188 -2.816406 3.734375 -2.84375 3.703125 -2.84375 C 3.679688 -2.851562 3.613281 -2.820312 3.5 -2.75 C 3.1875 -2.53125 2.882812 -2.300781 2.59375 -2.0625 C 2.457031 -1.96875 2.328125 -1.863281 2.203125 -1.75 C 2.128906 -1.6875 2.050781 -1.617188 1.96875 -1.546875 C 1.96875 -1.546875 1.960938 -1.539062 1.953125 -1.53125 C 1.859375 -1.445312 1.75 -1.390625 1.625 -1.359375 C 1.5625 -1.335938 1.492188 -1.328125 1.421875 -1.328125 C 1.359375 -1.335938 1.304688 -1.363281 1.265625 -1.40625 C 1.210938 -1.457031 1.191406 -1.507812 1.203125 -1.5625 C 1.222656 -1.625 1.269531 -1.710938 1.34375 -1.828125 C 1.414062 -1.941406 1.492188 -2.066406 1.578125 -2.203125 C 1.671875 -2.347656 1.722656 -2.4375 1.734375 -2.46875 C 1.742188 -2.5 1.738281 -2.53125 1.71875 -2.5625 C 1.6875 -2.59375 1.65625 -2.601562 1.625 -2.59375 C 1.601562 -2.582031 1.492188 -2.503906 1.296875 -2.359375 C 1.109375 -2.222656 0.847656 -2.03125 0.515625 -1.78125 C 0.359375 -1.664062 0.207031 -1.550781 0.0625 -1.4375 C 0.03125 -1.394531 -0.0078125 -1.359375 -0.0625 -1.328125 C -0.164062 -1.234375 -0.28125 -1.1875 -0.40625 -1.1875 C -0.5 -1.175781 -0.566406 -1.191406 -0.609375 -1.234375 C -0.660156 -1.285156 -0.671875 -1.351562 -0.640625 -1.4375 C -0.617188 -1.5 -0.59375 -1.554688 -0.5625 -1.609375 C -0.539062 -1.640625 -0.53125 -1.664062 -0.53125 -1.6875 C -0.25 -2.25 0.0195312 -2.804688 0.28125 -3.359375 C 0.289062 -3.378906 0.300781 -3.398438 0.3125 -3.421875 C 0.34375 -3.484375 0.375 -3.539062 0.40625 -3.59375 C 0.488281 -3.6875 0.585938 -3.71875 0.703125 -3.6875 C 0.835938 -3.644531 0.890625 -3.566406 0.859375 -3.453125 C 0.785156 -3.273438 0.722656 -3.101562 0.671875 -2.9375 C 0.640625 -2.863281 0.609375 -2.785156 0.578125 -2.703125 C 0.523438 -2.566406 0.503906 -2.476562 0.515625 -2.4375 C 0.535156 -2.40625 0.625 -2.4375 0.78125 -2.53125 C 0.882812 -2.59375 0.988281 -2.660156 1.09375 -2.734375 C 1.21875 -2.816406 1.335938 -2.894531 1.453125 -2.96875 C 1.628906 -3.070312 1.804688 -3.160156 1.984375 -3.234375 C 2.078125 -3.273438 2.171875 -3.304688 2.265625 -3.328125 C 2.367188 -3.347656 2.460938 -3.328125 2.546875 -3.265625 C 2.609375 -3.210938 2.632812 -3.148438 2.625 -3.078125 C 2.613281 -3.015625 2.59375 -2.953125 2.5625 -2.890625 C 2.519531 -2.773438 2.5 -2.703125 2.5 -2.671875 C 2.507812 -2.640625 2.535156 -2.632812 2.578125 -2.65625 C 2.628906 -2.675781 2.710938 -2.71875 2.828125 -2.78125 C 2.941406 -2.851562 3.066406 -2.929688 3.203125 -3.015625 C 3.367188 -3.128906 3.539062 -3.234375 3.71875 -3.328125 C 3.875 -3.429688 4.039062 -3.492188 4.21875 -3.515625 C 4.457031 -3.523438 4.554688 -3.425781 4.515625 -3.21875 C 4.472656 -3.007812 4.390625 -2.757812 4.265625 -2.46875 C 4.140625 -2.175781 4.125 -1.992188 4.21875 -1.921875 C 4.320312 -1.859375 4.539062 -1.953125 4.875 -2.203125 C 5.21875 -2.453125 5.414062 -2.59375 5.46875 -2.625 Z M 5.46875 -2.625 "/></g></g><g style="fill:#151f28;fill-opacity:1;"><g transform="translate(133.207248, 43.248847)"><path style="stroke:none" d="M 3.796875 -2.65625 C 3.878906 -2.613281 3.882812 -2.503906 3.8125 -2.328125 C 3.707031 -2.191406 3.597656 -2.066406 3.484375 -1.953125 C 3.367188 -1.835938 3.242188 -1.734375 3.109375 -1.640625 C 3.097656 -1.640625 3.09375 -1.632812 3.09375 -1.625 C 3 -1.5625 2.90625 -1.507812 2.8125 -1.46875 C 1.976562 -1.164062 1.550781 -1.34375 1.53125 -2 C 1.195312 -1.707031 0.972656 -1.523438 0.859375 -1.453125 C 0.578125 -1.296875 0.273438 -1.222656 -0.046875 -1.234375 C -0.273438 -1.253906 -0.429688 -1.328125 -0.515625 -1.453125 C -0.609375 -1.585938 -0.601562 -1.765625 -0.5 -1.984375 C -0.34375 -2.335938 -0.125 -2.648438 0.15625 -2.921875 C 0.476562 -3.234375 0.84375 -3.476562 1.25 -3.65625 C 1.46875 -3.769531 1.695312 -3.8125 1.9375 -3.78125 C 2.164062 -3.769531 2.304688 -3.640625 2.359375 -3.390625 C 2.378906 -3.304688 2.363281 -3.238281 2.3125 -3.1875 C 2.226562 -3.113281 2.132812 -3.097656 2.03125 -3.140625 C 2.03125 -3.140625 2.019531 -3.140625 2 -3.140625 C 1.988281 -3.140625 1.984375 -3.144531 1.984375 -3.15625 C 1.878906 -3.289062 1.773438 -3.347656 1.671875 -3.328125 C 1.566406 -3.304688 1.457031 -3.257812 1.34375 -3.1875 C 0.8125 -2.875 0.414062 -2.4375 0.15625 -1.875 C 0.132812 -1.851562 0.125 -1.828125 0.125 -1.796875 C 0.125 -1.765625 0.132812 -1.742188 0.15625 -1.734375 C 0.21875 -1.710938 0.285156 -1.710938 0.359375 -1.734375 C 0.429688 -1.765625 0.503906 -1.804688 0.578125 -1.859375 C 0.660156 -1.921875 0.726562 -1.972656 0.78125 -2.015625 C 0.789062 -2.023438 0.796875 -2.03125 0.796875 -2.03125 C 1.046875 -2.25 1.296875 -2.46875 1.546875 -2.6875 C 1.648438 -2.800781 1.78125 -2.863281 1.9375 -2.875 C 2.164062 -2.875 2.265625 -2.773438 2.234375 -2.578125 C 2.210938 -2.492188 2.1875 -2.414062 2.15625 -2.34375 C 2.070312 -2.007812 2.070312 -1.8125 2.15625 -1.75 C 2.238281 -1.695312 2.363281 -1.695312 2.53125 -1.75 C 2.707031 -1.8125 2.878906 -1.921875 3.046875 -2.078125 C 3.222656 -2.242188 3.367188 -2.394531 3.484375 -2.53125 C 3.609375 -2.664062 3.710938 -2.707031 3.796875 -2.65625 Z M 3.796875 -2.65625 "/></g></g><g style="fill:#151f28;fill-opacity:1;"><g transform="translate(138.278685, 43.248847)"><path style="stroke:none" d="M 2.515625 -3.203125 C 2.484375 -2.960938 2.367188 -2.804688 2.171875 -2.734375 C 1.972656 -2.660156 1.90625 -2.753906 1.96875 -3.015625 C 2.039062 -3.285156 1.921875 -3.351562 1.609375 -3.21875 C 1.304688 -3.09375 1.054688 -2.929688 0.859375 -2.734375 C 0.554688 -2.421875 0.285156 -2.082031 0.046875 -1.71875 C 0.0234375 -1.6875 0.00390625 -1.660156 -0.015625 -1.640625 C -0.078125 -1.535156 -0.144531 -1.441406 -0.21875 -1.359375 C -0.257812 -1.296875 -0.3125 -1.253906 -0.375 -1.234375 C -0.4375 -1.222656 -0.5 -1.222656 -0.5625 -1.234375 C -0.625 -1.234375 -0.671875 -1.253906 -0.703125 -1.296875 C -0.734375 -1.335938 -0.734375 -1.382812 -0.703125 -1.4375 C -0.671875 -1.53125 -0.628906 -1.625 -0.578125 -1.71875 C -0.265625 -2.300781 0.0507812 -2.882812 0.375 -3.46875 C 0.382812 -3.476562 0.390625 -3.484375 0.390625 -3.484375 C 0.429688 -3.578125 0.484375 -3.660156 0.546875 -3.734375 C 0.617188 -3.816406 0.703125 -3.847656 0.796875 -3.828125 C 0.890625 -3.816406 0.953125 -3.765625 0.984375 -3.671875 C 1.015625 -3.546875 1.046875 -3.472656 1.078125 -3.453125 C 1.109375 -3.441406 1.171875 -3.457031 1.265625 -3.5 C 1.472656 -3.570312 1.675781 -3.625 1.875 -3.65625 C 2.070312 -3.6875 2.234375 -3.675781 2.359375 -3.625 C 2.492188 -3.582031 2.546875 -3.441406 2.515625 -3.203125 Z M 2.515625 -3.203125 "/></g></g><g style="fill:#151f28;fill-opacity:1;"><g transform="translate(142.498162, 43.248847)"><path style="stroke:none" d="M 3.796875 -2.65625 C 3.878906 -2.613281 3.882812 -2.503906 3.8125 -2.328125 C 3.707031 -2.191406 3.597656 -2.066406 3.484375 -1.953125 C 3.367188 -1.835938 3.242188 -1.734375 3.109375 -1.640625 C 3.097656 -1.640625 3.09375 -1.632812 3.09375 -1.625 C 3 -1.5625 2.90625 -1.507812 2.8125 -1.46875 C 1.976562 -1.164062 1.550781 -1.34375 1.53125 -2 C 1.195312 -1.707031 0.972656 -1.523438 0.859375 -1.453125 C 0.578125 -1.296875 0.273438 -1.222656 -0.046875 -1.234375 C -0.273438 -1.253906 -0.429688 -1.328125 -0.515625 -1.453125 C -0.609375 -1.585938 -0.601562 -1.765625 -0.5 -1.984375 C -0.34375 -2.335938 -0.125 -2.648438 0.15625 -2.921875 C 0.476562 -3.234375 0.84375 -3.476562 1.25 -3.65625 C 1.46875 -3.769531 1.695312 -3.8125 1.9375 -3.78125 C 2.164062 -3.769531 2.304688 -3.640625 2.359375 -3.390625 C 2.378906 -3.304688 2.363281 -3.238281 2.3125 -3.1875 C 2.226562 -3.113281 2.132812 -3.097656 2.03125 -3.140625 C 2.03125 -3.140625 2.019531 -3.140625 2 -3.140625 C 1.988281 -3.140625 1.984375 -3.144531 1.984375 -3.15625 C 1.878906 -3.289062 1.773438 -3.347656 1.671875 -3.328125 C 1.566406 -3.304688 1.457031 -3.257812 1.34375 -3.1875 C 0.8125 -2.875 0.414062 -2.4375 0.15625 -1.875 C 0.132812 -1.851562 0.125 -1.828125 0.125 -1.796875 C 0.125 -1.765625 0.132812 -1.742188 0.15625 -1.734375 C 0.21875 -1.710938 0.285156 -1.710938 0.359375 -1.734375 C 0.429688 -1.765625 0.503906 -1.804688 0.578125 -1.859375 C 0.660156 -1.921875 0.726562 -1.972656 0.78125 -2.015625 C 0.789062 -2.023438 0.796875 -2.03125 0.796875 -2.03125 C 1.046875 -2.25 1.296875 -2.46875 1.546875 -2.6875 C 1.648438 -2.800781 1.78125 -2.863281 1.9375 -2.875 C 2.164062 -2.875 2.265625 -2.773438 2.234375 -2.578125 C 2.210938 -2.492188 2.1875 -2.414062 2.15625 -2.34375 C 2.070312 -2.007812 2.070312 -1.8125 2.15625 -1.75 C 2.238281 -1.695312 2.363281 -1.695312 2.53125 -1.75 C 2.707031 -1.8125 2.878906 -1.921875 3.046875 -2.078125 C 3.222656 -2.242188 3.367188 -2.394531 3.484375 -2.53125 C 3.609375 -2.664062 3.710938 -2.707031 3.796875 -2.65625 Z M 3.796875 -2.65625 "/></g></g><g style="fill:#151f28;fill-opacity:1;"><g transform="translate(147.569608, 43.248847)"><path style="stroke:none" d="M 4.140625 -2.609375 C 4.191406 -2.535156 4.117188 -2.40625 3.921875 -2.21875 C 3.734375 -2.039062 3.53125 -1.890625 3.3125 -1.765625 C 3.09375 -1.640625 2.835938 -1.515625 2.546875 -1.390625 C 2.347656 -1.304688 2.140625 -1.273438 1.921875 -1.296875 C 1.710938 -1.328125 1.609375 -1.457031 1.609375 -1.6875 C 1.609375 -1.925781 1.660156 -2.160156 1.765625 -2.390625 C 1.878906 -2.628906 1.90625 -2.75 1.84375 -2.75 C 1.78125 -2.757812 1.65625 -2.703125 1.46875 -2.578125 C 0.96875 -2.253906 0.503906 -1.878906 0.078125 -1.453125 C -0.0351562 -1.316406 -0.179688 -1.242188 -0.359375 -1.234375 C -0.453125 -1.234375 -0.523438 -1.257812 -0.578125 -1.3125 C -0.628906 -1.375 -0.632812 -1.4375 -0.59375 -1.5 C -0.289062 -2.070312 0.015625 -2.632812 0.328125 -3.1875 C 0.398438 -3.300781 0.503906 -3.367188 0.640625 -3.390625 C 0.703125 -3.398438 0.757812 -3.378906 0.8125 -3.328125 C 0.863281 -3.285156 0.890625 -3.238281 0.890625 -3.1875 C 0.878906 -3.125 0.859375 -3.054688 0.828125 -2.984375 C 0.804688 -2.941406 0.785156 -2.898438 0.765625 -2.859375 C 0.753906 -2.816406 0.75 -2.78125 0.75 -2.75 C 0.757812 -2.71875 0.785156 -2.707031 0.828125 -2.71875 C 0.878906 -2.75 0.929688 -2.78125 0.984375 -2.8125 C 1.109375 -2.882812 1.234375 -2.957031 1.359375 -3.03125 C 1.460938 -3.09375 1.570312 -3.144531 1.6875 -3.1875 C 1.8125 -3.238281 1.9375 -3.273438 2.0625 -3.296875 C 2.28125 -3.304688 2.429688 -3.257812 2.515625 -3.15625 C 2.597656 -3.050781 2.609375 -2.898438 2.546875 -2.703125 C 2.472656 -2.535156 2.398438 -2.363281 2.328125 -2.1875 C 2.234375 -2.03125 2.21875 -1.910156 2.28125 -1.828125 C 2.34375 -1.742188 2.632812 -1.835938 3.15625 -2.109375 L 3.546875 -2.34375 C 3.910156 -2.582031 4.109375 -2.671875 4.140625 -2.609375 Z M 4.140625 -2.609375 "/></g></g><g style="fill:#151f28;fill-opacity:1;"><g transform="translate(153.006914, 43.248847)"><path style="stroke:none" d="M 3.265625 -2.53125 C 2.796875 -1.976562 2.335938 -1.570312 1.890625 -1.3125 C 1.441406 -1.050781 0.960938 -0.960938 0.453125 -1.046875 C -0.0546875 -1.140625 -0.265625 -1.484375 -0.171875 -2.078125 C -0.109375 -2.378906 -0.0234375 -2.671875 0.078125 -2.953125 C 0.347656 -3.617188 0.625 -4.28125 0.90625 -4.9375 C 0.988281 -5.175781 1.082031 -5.414062 1.1875 -5.65625 C 1.207031 -5.707031 1.226562 -5.757812 1.25 -5.8125 C 1.289062 -5.894531 1.332031 -5.984375 1.375 -6.078125 C 1.425781 -6.234375 1.363281 -6.3125 1.1875 -6.3125 C 1.082031 -6.3125 0.984375 -6.3125 0.890625 -6.3125 C 0.847656 -6.3125 0.796875 -6.3125 0.734375 -6.3125 C 0.679688 -6.3125 0.628906 -6.304688 0.578125 -6.296875 C 0.484375 -6.285156 0.390625 -6.28125 0.296875 -6.28125 C 0.210938 -6.28125 0.132812 -6.304688 0.0625 -6.359375 C 0.0390625 -6.359375 0.0195312 -6.367188 0 -6.390625 C -0.0078125 -6.410156 -0.015625 -6.429688 -0.015625 -6.453125 C -0.00390625 -6.472656 0.00390625 -6.488281 0.015625 -6.5 C 0.0351562 -6.519531 0.0546875 -6.535156 0.078125 -6.546875 C 0.160156 -6.578125 0.242188 -6.597656 0.328125 -6.609375 C 0.535156 -6.617188 0.75 -6.628906 0.96875 -6.640625 C 1.050781 -6.640625 1.125 -6.640625 1.1875 -6.640625 C 1.320312 -6.640625 1.421875 -6.644531 1.484375 -6.65625 C 1.554688 -6.664062 1.613281 -6.703125 1.65625 -6.765625 C 1.695312 -6.828125 1.75 -6.925781 1.8125 -7.0625 C 1.84375 -7.125 1.878906 -7.195312 1.921875 -7.28125 C 2.035156 -7.53125 2.148438 -7.78125 2.265625 -8.03125 C 2.316406 -8.144531 2.375 -8.253906 2.4375 -8.359375 C 2.476562 -8.472656 2.546875 -8.5625 2.640625 -8.625 C 2.734375 -8.664062 2.816406 -8.660156 2.890625 -8.609375 C 2.910156 -8.597656 2.925781 -8.578125 2.9375 -8.546875 C 2.945312 -8.515625 2.953125 -8.484375 2.953125 -8.453125 C 2.953125 -8.316406 2.921875 -8.179688 2.859375 -8.046875 C 2.835938 -8.023438 2.820312 -7.992188 2.8125 -7.953125 C 2.757812 -7.828125 2.707031 -7.703125 2.65625 -7.578125 C 2.5625 -7.335938 2.46875 -7.09375 2.375 -6.84375 C 2.351562 -6.800781 2.351562 -6.757812 2.375 -6.71875 C 2.394531 -6.6875 2.425781 -6.671875 2.46875 -6.671875 C 2.71875 -6.660156 2.960938 -6.65625 3.203125 -6.65625 C 3.316406 -6.65625 3.4375 -6.65625 3.5625 -6.65625 C 3.945312 -6.65625 4.101562 -6.601562 4.03125 -6.5 C 3.976562 -6.4375 3.921875 -6.398438 3.859375 -6.390625 C 3.796875 -6.390625 3.734375 -6.394531 3.671875 -6.40625 C 3.628906 -6.40625 3.585938 -6.40625 3.546875 -6.40625 C 3.160156 -6.375 2.773438 -6.359375 2.390625 -6.359375 C 2.210938 -6.359375 2.09375 -6.273438 2.03125 -6.109375 C 1.96875 -5.960938 1.910156 -5.8125 1.859375 -5.65625 C 1.765625 -5.457031 1.679688 -5.257812 1.609375 -5.0625 C 1.535156 -4.882812 1.457031 -4.703125 1.375 -4.515625 C 1.175781 -4.046875 0.988281 -3.578125 0.8125 -3.109375 C 0.6875 -2.804688 0.59375 -2.492188 0.53125 -2.171875 C 0.382812 -1.585938 0.609375 -1.363281 1.203125 -1.5 C 1.785156 -1.632812 2.398438 -2.054688 3.046875 -2.765625 C 3.328125 -2.941406 3.398438 -2.863281 3.265625 -2.53125 Z M 3.265625 -2.53125 "/></g></g><g style="fill:#151f28;fill-opacity:1;"><g transform="translate(157.581808, 43.248847)"><path style="stroke:none" d="M 0.828125 -1.234375 L 0.8125 -1.234375 C 0.3125 -1.242188 -0.015625 -1.359375 -0.171875 -1.578125 C -0.335938 -1.796875 -0.332031 -2.085938 -0.15625 -2.453125 C -0.0078125 -2.722656 0.171875 -2.960938 0.390625 -3.171875 C 0.460938 -3.234375 0.539062 -3.285156 0.625 -3.328125 C 0.707031 -3.367188 0.800781 -3.390625 0.90625 -3.390625 C 0.957031 -3.398438 1.023438 -3.390625 1.109375 -3.359375 C 1.128906 -3.359375 1.148438 -3.351562 1.171875 -3.34375 C 1.234375 -3.351562 1.289062 -3.367188 1.34375 -3.390625 C 1.363281 -3.398438 1.382812 -3.410156 1.40625 -3.421875 C 1.519531 -3.460938 1.640625 -3.484375 1.765625 -3.484375 C 1.816406 -3.484375 1.875 -3.484375 1.9375 -3.484375 C 2.132812 -3.453125 2.285156 -3.363281 2.390625 -3.21875 C 2.503906 -3.082031 2.546875 -2.910156 2.515625 -2.703125 C 2.492188 -2.585938 2.453125 -2.472656 2.390625 -2.359375 C 1.992188 -1.640625 1.484375 -1.265625 0.859375 -1.234375 Z M 1.65625 -3.109375 C 1.382812 -3.117188 1.140625 -3.039062 0.921875 -2.875 C 0.703125 -2.707031 0.539062 -2.507812 0.4375 -2.28125 C 0.332031 -2.0625 0.300781 -1.878906 0.34375 -1.734375 C 0.394531 -1.597656 0.546875 -1.5625 0.796875 -1.625 C 1.066406 -1.707031 1.304688 -1.863281 1.515625 -2.09375 C 1.734375 -2.332031 1.863281 -2.550781 1.90625 -2.75 C 1.957031 -2.957031 1.875 -3.078125 1.65625 -3.109375 Z M 1.65625 -3.109375 "/></g></g></g></svg>