<svg xmlns="http://www.w3.org/2000/svg" xmlns:xlink="http://www.w3.org/1999/xlink" width="500" zoomAndPan="magnify" viewBox="0 0 375 374.999991" height="500" preserveAspectRatio="xMidYMid meet" version="1.2"><defs/><g id="340ec6c069"><rect x="0" width="375" y="0" height="374.999991" style="fill:#ffffff;fill-opacity:1;stroke:none;"/><rect x="0" width="375" y="0" height="374.999991" style="fill:#ffffff;fill-opacity:1;stroke:none;"/><g style="fill:#000000;fill-opacity:1;"><g transform="translate(59.245752, 227.637926)"><path style="stroke:none" d="M 3 0 L 3 -1.5 L 6 -2.546875 C 9.40625 -3.648438 11.109375 -6.503906 11.109375 -11.109375 L 11.109375 -88 C 11.109375 -90 10.882812 -91.597656 10.4375 -92.796875 C 9.988281 -94.003906 8.8125 -95.007812 6.90625 -95.8125 L 3 -97.609375 L 3 -99.109375 L 31.984375 -99.109375 L 59.765625 -26.4375 L 85.890625 -99.109375 L 115.484375 -99.109375 L 115.484375 -97.609375 L 113.078125 -96.703125 C 111.171875 -96.003906 109.867188 -95.03125 109.171875 -93.78125 C 108.472656 -92.53125 108.125 -90.90625 108.125 -88.90625 L 108.125 -10.359375 C 108.125 -8.359375 108.375 -6.804688 108.875 -5.703125 C 109.375 -4.597656 110.578125 -3.648438 112.484375 -2.859375 L 115.484375 -1.5 L 115.484375 0 L 78.09375 0 L 78.09375 -1.5 L 81.25 -2.859375 C 83.144531 -3.648438 84.34375 -4.597656 84.84375 -5.703125 C 85.34375 -6.804688 85.59375 -8.359375 85.59375 -10.359375 L 85.59375 -44.15625 L 85.890625 -87.09375 L 54.515625 0 L 47 0 L 14.265625 -86.046875 L 14.71875 -48.65625 L 14.71875 -10.8125 C 14.71875 -8.613281 15.039062 -6.835938 15.6875 -5.484375 C 16.34375 -4.128906 17.617188 -3.148438 19.515625 -2.546875 L 22.828125 -1.5 L 22.828125 0 Z M 3 0 "/></g></g><g style="fill:#000000;fill-opacity:1;"><g transform="translate(178.025473, 227.637926)"><path style="stroke:none" d="M 18.171875 37.546875 L 18.171875 -112.625 L 21.78125 -112.625 L 21.78125 37.546875 Z M 18.171875 37.546875 "/></g></g><g style="fill:#000000;fill-opacity:1;"><g transform="translate(218.119262, 227.637926)"><path style="stroke:none" d="M 1.203125 0 L 1.203125 -1.5 L 4.953125 -2.859375 C 6.953125 -3.648438 8.503906 -4.625 9.609375 -5.78125 C 10.710938 -6.9375 11.613281 -8.5625 12.3125 -10.65625 L 43.25 -99.40625 L 56.015625 -99.40625 L 86.5 -10.0625 C 87.300781 -7.851562 88.203125 -6.171875 89.203125 -5.015625 C 90.203125 -3.867188 91.753906 -2.898438 93.859375 -2.109375 L 95.65625 -1.5 L 95.65625 0 L 57.515625 0 L 57.515625 -1.5 L 59.765625 -2.25 C 61.867188 -3.050781 63.144531 -4.175781 63.59375 -5.625 C 64.050781 -7.082031 63.976562 -8.8125 63.375 -10.8125 L 56.3125 -32.4375 L 22.96875 -32.4375 L 15.765625 -11.265625 C 15.066406 -9.054688 14.84375 -7.300781 15.09375 -6 C 15.34375 -4.695312 16.519531 -3.648438 18.625 -2.859375 L 21.921875 -1.5 L 21.921875 0 Z M 24.03125 -35.4375 L 55.40625 -35.4375 L 40.25 -82.140625 Z M 24.03125 -35.4375 "/></g></g><g style="fill:#ffffff;fill-opacity:1;"><g transform="translate(25.652788, 206.237931)"><path style="stroke:none" d="M 65.578125 -36.640625 C 65.804688 -36.453125 66.007812 -36.238281 66.1875 -36 C 66.363281 -35.769531 66.476562 -35.492188 66.53125 -35.171875 C 66.582031 -34.816406 66.453125 -34.546875 66.140625 -34.359375 C 65.953125 -34.273438 65.769531 -34.265625 65.59375 -34.328125 C 65.414062 -34.398438 65.289062 -34.535156 65.21875 -34.734375 C 65.007812 -35.296875 64.703125 -35.738281 64.296875 -36.0625 C 63.890625 -36.382812 63.441406 -36.671875 62.953125 -36.921875 C 61.890625 -37.472656 60.789062 -37.925781 59.65625 -38.28125 C 58.519531 -38.632812 57.378906 -38.941406 56.234375 -39.203125 C 54.304688 -39.609375 51.742188 -39.875 48.546875 -40 C 45.359375 -40.125 41.800781 -40.078125 37.875 -39.859375 C 33.957031 -39.640625 29.945312 -39.21875 25.84375 -38.59375 C 21.738281 -37.976562 17.8125 -37.125 14.0625 -36.03125 C 10.3125 -34.945312 7.015625 -33.59375 4.171875 -31.96875 C 1.328125 -30.351562 -0.789062 -28.441406 -2.1875 -26.234375 C -3.351562 -24.328125 -3.582031 -22.3125 -2.875 -20.1875 C -2.375 -18.726562 -1.648438 -17.40625 -0.703125 -16.21875 C 0.710938 -14.425781 2.28125 -12.785156 4 -11.296875 C 5.445312 -9.972656 6.90625 -8.65625 8.375 -7.34375 C 9.8125 -6.070312 11.25 -4.785156 12.6875 -3.484375 C 14.28125 -2.003906 15.851562 -0.515625 17.40625 0.984375 C 17.550781 1.128906 17.695312 1.269531 17.84375 1.40625 C 18.6875 2.1875 19.425781 3.050781 20.0625 4 C 20.707031 5.082031 20.828125 5.921875 20.421875 6.515625 C 20.023438 7.117188 19.265625 7.523438 18.140625 7.734375 C 17.015625 7.941406 15.707031 8.003906 14.21875 7.921875 C 12.726562 7.847656 11.226562 7.664062 9.71875 7.375 C 8.207031 7.082031 6.863281 6.734375 5.6875 6.328125 C 4.519531 5.921875 3.695312 5.5 3.21875 5.0625 C 2.25 4.164062 2.179688 3.21875 3.015625 2.21875 C 3.921875 1.195312 5.023438 0.453125 6.328125 -0.015625 C 8.222656 -0.742188 10.132812 -0.800781 12.0625 -0.1875 C 12.4375 -0.0507812 12.789062 0.125 13.125 0.34375 C 13.15625 0.363281 13.1875 0.382812 13.21875 0.40625 C 13.3125 0.457031 13.375 0.53125 13.40625 0.625 C 13.4375 0.726562 13.421875 0.84375 13.359375 0.96875 C 13.203125 1.15625 13.015625 1.207031 12.796875 1.125 C 12.585938 1.050781 12.390625 0.957031 12.203125 0.84375 C 10.859375 0.175781 9.476562 0.0351562 8.0625 0.421875 C 6.65625 0.816406 5.46875 1.59375 4.5 2.75 C 4.070312 3.300781 4.046875 3.785156 4.421875 4.203125 C 4.804688 4.628906 5.390625 4.988281 6.171875 5.28125 C 6.953125 5.570312 7.738281 5.796875 8.53125 5.953125 C 9.320312 6.117188 9.914062 6.234375 10.3125 6.296875 C 10.382812 6.296875 10.4375 6.304688 10.46875 6.328125 C 10.550781 6.328125 10.644531 6.332031 10.75 6.34375 C 11.25 6.457031 11.929688 6.570312 12.796875 6.6875 C 13.671875 6.8125 14.566406 6.894531 15.484375 6.9375 C 16.410156 6.988281 17.203125 6.929688 17.859375 6.765625 C 18.523438 6.597656 18.898438 6.269531 18.984375 5.78125 C 19.066406 5.300781 18.695312 4.585938 17.875 3.640625 C 17 2.640625 16.078125 1.664062 15.109375 0.71875 C 12.691406 -1.632812 10.207031 -3.910156 7.65625 -6.109375 C 6.738281 -6.929688 5.820312 -7.75 4.90625 -8.5625 C 3.382812 -9.9375 1.890625 -11.34375 0.421875 -12.78125 C -0.941406 -14.101562 -2.144531 -15.554688 -3.1875 -17.140625 C -3.925781 -18.285156 -4.445312 -19.523438 -4.75 -20.859375 C -5.195312 -23.035156 -4.796875 -25.046875 -3.546875 -26.890625 C -2.171875 -28.953125 -0.179688 -30.78125 2.421875 -32.375 C 5.023438 -33.96875 8.046875 -35.328125 11.484375 -36.453125 C 14.921875 -37.578125 18.582031 -38.488281 22.46875 -39.1875 C 26.351562 -39.882812 30.273438 -40.378906 34.234375 -40.671875 C 38.203125 -40.960938 42.003906 -41.0625 45.640625 -40.96875 C 49.285156 -40.875 52.582031 -40.597656 55.53125 -40.140625 C 58.476562 -39.679688 60.898438 -39.050781 62.796875 -38.25 C 63.796875 -37.863281 64.722656 -37.328125 65.578125 -36.640625 Z M 65.578125 -36.640625 "/></g></g><g style="fill:#ffffff;fill-opacity:1;"><g transform="translate(48.260052, 206.237931)"><path style="stroke:none" d="M 7.9375 -6.125 C 6.800781 -4.789062 5.6875 -3.804688 4.59375 -3.171875 C 3.507812 -2.535156 2.347656 -2.328125 1.109375 -2.546875 C -0.128906 -2.765625 -0.640625 -3.597656 -0.421875 -5.046875 C -0.265625 -5.765625 -0.0546875 -6.472656 0.203125 -7.171875 C 0.859375 -8.785156 1.519531 -10.394531 2.1875 -12 C 2.40625 -12.570312 2.632812 -13.148438 2.875 -13.734375 C 2.9375 -13.859375 2.992188 -13.988281 3.046875 -14.125 C 3.140625 -14.332031 3.234375 -14.546875 3.328125 -14.765625 C 3.460938 -15.140625 3.3125 -15.332031 2.875 -15.34375 C 2.632812 -15.34375 2.394531 -15.34375 2.15625 -15.34375 C 2.050781 -15.34375 1.929688 -15.34375 1.796875 -15.34375 C 1.660156 -15.332031 1.523438 -15.316406 1.390625 -15.296875 C 1.171875 -15.273438 0.953125 -15.265625 0.734375 -15.265625 C 0.523438 -15.265625 0.328125 -15.320312 0.140625 -15.4375 C 0.0859375 -15.457031 0.046875 -15.488281 0.015625 -15.53125 C -0.015625 -15.582031 -0.03125 -15.632812 -0.03125 -15.6875 C -0.0078125 -15.726562 0.015625 -15.769531 0.046875 -15.8125 C 0.0859375 -15.851562 0.140625 -15.882812 0.203125 -15.90625 C 0.390625 -15.976562 0.582031 -16.035156 0.78125 -16.078125 C 1.3125 -16.097656 1.832031 -16.117188 2.34375 -16.140625 C 2.550781 -16.140625 2.726562 -16.140625 2.875 -16.140625 C 3.21875 -16.140625 3.472656 -16.148438 3.640625 -16.171875 C 3.804688 -16.203125 3.9375 -16.289062 4.03125 -16.4375 C 4.132812 -16.59375 4.253906 -16.828125 4.390625 -17.140625 C 4.460938 -17.304688 4.554688 -17.492188 4.671875 -17.703125 C 4.953125 -18.296875 5.234375 -18.898438 5.515625 -19.515625 C 5.640625 -19.796875 5.769531 -20.066406 5.90625 -20.328125 C 6.007812 -20.585938 6.179688 -20.789062 6.421875 -20.9375 C 6.648438 -21.039062 6.847656 -21.03125 7.015625 -20.90625 C 7.066406 -20.875 7.109375 -20.816406 7.140625 -20.734375 C 7.171875 -20.660156 7.1875 -20.597656 7.1875 -20.546875 C 7.1875 -20.210938 7.101562 -19.882812 6.9375 -19.5625 C 6.894531 -19.5 6.851562 -19.421875 6.8125 -19.328125 C 6.707031 -19.015625 6.59375 -18.703125 6.46875 -18.390625 C 6.21875 -17.816406 5.984375 -17.226562 5.765625 -16.625 C 5.703125 -16.519531 5.695312 -16.425781 5.75 -16.34375 C 5.8125 -16.257812 5.894531 -16.21875 6 -16.21875 C 6.601562 -16.195312 7.191406 -16.1875 7.765625 -16.1875 C 8.066406 -16.1875 8.363281 -16.1875 8.65625 -16.1875 C 9.59375 -16.164062 9.96875 -16.035156 9.78125 -15.796875 C 9.644531 -15.648438 9.503906 -15.566406 9.359375 -15.546875 C 9.210938 -15.523438 9.0625 -15.523438 8.90625 -15.546875 C 8.8125 -15.546875 8.722656 -15.546875 8.640625 -15.546875 C 7.691406 -15.492188 6.75 -15.457031 5.8125 -15.4375 C 5.382812 -15.4375 5.097656 -15.242188 4.953125 -14.859375 C 4.796875 -14.484375 4.644531 -14.109375 4.5 -13.734375 C 4.289062 -13.242188 4.09375 -12.765625 3.90625 -12.296875 C 3.71875 -11.859375 3.535156 -11.414062 3.359375 -10.96875 C 2.867188 -9.832031 2.398438 -8.691406 1.953125 -7.546875 C 1.671875 -6.804688 1.453125 -6.046875 1.296875 -5.265625 C 0.941406 -3.859375 1.488281 -3.316406 2.9375 -3.640625 C 4.351562 -3.984375 5.84375 -5.007812 7.40625 -6.71875 C 8.082031 -7.144531 8.257812 -6.945312 7.9375 -6.125 Z M 7.9375 -6.125 "/></g></g><g style="fill:#ffffff;fill-opacity:1;"><g transform="translate(59.36882, 206.237931)"><path style="stroke:none" d="M 0.3125 -2.25 C -0.488281 -2.25 -0.890625 -2.664062 -0.890625 -3.5 C -0.890625 -4.53125 -0.222656 -6.335938 1.109375 -8.921875 C 1.160156 -9.035156 1.253906 -9.09375 1.390625 -9.09375 C 1.921875 -9.09375 2.1875 -8.878906 2.1875 -8.453125 C 2.1875 -8.304688 2.140625 -8.117188 2.046875 -7.890625 C 2.015625 -7.835938 1.570312 -6.722656 0.71875 -4.546875 C 0.582031 -4.191406 0.515625 -3.929688 0.515625 -3.765625 C 0.515625 -3.578125 0.597656 -3.484375 0.765625 -3.484375 C 1.378906 -3.484375 3 -5.019531 5.625 -8.09375 C 5.957031 -8.5 6.289062 -8.703125 6.625 -8.703125 C 7.101562 -8.703125 7.34375 -8.523438 7.34375 -8.171875 C 7.34375 -8.035156 7.195312 -7.523438 6.90625 -6.640625 C 6.5 -5.429688 6.296875 -4.734375 6.296875 -4.546875 C 6.296875 -4.265625 6.390625 -4.125 6.578125 -4.125 C 7.046875 -4.125 8.40625 -4.953125 10.65625 -6.609375 C 10.78125 -6.722656 10.890625 -6.78125 10.984375 -6.78125 C 11.191406 -6.78125 11.296875 -6.601562 11.296875 -6.25 C 11.296875 -6.15625 11.265625 -6.078125 11.203125 -6.015625 C 10.015625 -4.992188 9 -4.21875 8.15625 -3.6875 C 7.394531 -3.195312 6.71875 -2.953125 6.125 -2.953125 L 5.953125 -2.953125 C 5.078125 -3.128906 4.640625 -3.804688 4.640625 -4.984375 C 3.710938 -4.171875 2.941406 -3.507812 2.328125 -3 C 1.710938 -2.5 1.039062 -2.25 0.3125 -2.25 Z M 0.3125 -2.25 "/></g></g><g style="fill:#ffffff;fill-opacity:1;"><g transform="translate(73.701228, 206.237931)"><path style="stroke:none" d="M 11.265625 -6.671875 C 11.453125 -6.628906 11.546875 -6.566406 11.546875 -6.484375 C 11.554688 -6.398438 11.5625 -6.359375 11.5625 -6.359375 C 11.363281 -6.003906 11.132812 -5.679688 10.875 -5.390625 C 10.269531 -4.710938 9.566406 -4.175781 8.765625 -3.78125 C 8.378906 -3.5625 7.941406 -3.441406 7.453125 -3.421875 C 6.316406 -3.410156 5.796875 -3.960938 5.890625 -5.078125 C 5.929688 -5.316406 5.988281 -5.550781 6.0625 -5.78125 C 6.101562 -5.882812 6.128906 -5.992188 6.140625 -6.109375 C 6.253906 -6.515625 6.285156 -6.738281 6.234375 -6.78125 C 6.191406 -6.832031 6.0625 -6.71875 5.84375 -6.4375 C 5.78125 -6.382812 5.722656 -6.328125 5.671875 -6.265625 C 5.335938 -5.859375 4.992188 -5.460938 4.640625 -5.078125 C 3.984375 -4.335938 3.238281 -3.710938 2.40625 -3.203125 C 1.90625 -2.898438 1.375 -2.742188 0.8125 -2.734375 C -0.101562 -2.691406 -0.613281 -3.109375 -0.71875 -3.984375 C -0.757812 -4.335938 -0.742188 -4.691406 -0.671875 -5.046875 C -0.296875 -6.484375 0.445312 -7.578125 1.5625 -8.328125 C 2.675781 -9.078125 3.953125 -9.34375 5.390625 -9.125 C 5.796875 -9.007812 6.09375 -9.117188 6.28125 -9.453125 C 6.363281 -9.585938 6.441406 -9.722656 6.515625 -9.859375 C 6.898438 -10.523438 7.28125 -11.191406 7.65625 -11.859375 C 8.351562 -13.140625 9.0625 -14.4375 9.78125 -15.75 C 10.351562 -16.769531 10.925781 -17.800781 11.5 -18.84375 C 11.664062 -19.164062 11.851562 -19.472656 12.0625 -19.765625 C 12.15625 -19.910156 12.269531 -20 12.40625 -20.03125 C 12.550781 -20.0625 12.695312 -20.078125 12.84375 -20.078125 C 12.882812 -20.078125 12.925781 -20.078125 12.96875 -20.078125 C 13.132812 -20.078125 13.265625 -20.03125 13.359375 -19.9375 C 13.460938 -19.851562 13.488281 -19.742188 13.4375 -19.609375 C 13.320312 -19.242188 13.1875 -18.90625 13.03125 -18.59375 C 12.257812 -17.03125 11.523438 -15.453125 10.828125 -13.859375 C 10.140625 -12.265625 9.460938 -10.660156 8.796875 -9.046875 C 8.578125 -8.484375 8.351562 -7.921875 8.125 -7.359375 C 7.84375 -6.710938 7.609375 -6.046875 7.421875 -5.359375 C 7.367188 -5.203125 7.34375 -5.050781 7.34375 -4.90625 C 7.34375 -4.757812 7.414062 -4.628906 7.5625 -4.515625 C 7.65625 -4.460938 7.753906 -4.453125 7.859375 -4.484375 C 7.960938 -4.523438 8.070312 -4.570312 8.1875 -4.625 C 8.207031 -4.644531 8.234375 -4.664062 8.265625 -4.6875 C 9.066406 -5.15625 9.800781 -5.710938 10.46875 -6.359375 C 10.582031 -6.472656 10.695312 -6.566406 10.8125 -6.640625 C 10.9375 -6.710938 11.085938 -6.722656 11.265625 -6.671875 Z M 5 -7.5 C 5.09375 -7.65625 5.117188 -7.800781 5.078125 -7.9375 C 5.046875 -8.082031 4.953125 -8.1875 4.796875 -8.25 C 4.484375 -8.414062 4.148438 -8.4375 3.796875 -8.3125 C 2.921875 -8.050781 2.1875 -7.550781 1.59375 -6.8125 C 1.007812 -6.082031 0.691406 -5.269531 0.640625 -4.375 C 0.660156 -4.332031 0.671875 -4.304688 0.671875 -4.296875 C 0.671875 -4.210938 0.671875 -4.132812 0.671875 -4.0625 C 0.742188 -3.65625 0.992188 -3.578125 1.421875 -3.828125 C 1.847656 -4.078125 2.328125 -4.476562 2.859375 -5.03125 C 3.390625 -5.59375 3.863281 -6.125 4.28125 -6.625 C 4.695312 -7.132812 4.9375 -7.425781 5 -7.5 Z M 5 -7.5 "/></g></g><g style="fill:#ffffff;fill-opacity:1;"><g transform="translate(88.211317, 206.237931)"><path style="stroke:none" d="M 5.046875 -5.34375 C 4.597656 -4.8125 4.0625 -4.320312 3.4375 -3.875 C 2.820312 -3.425781 2.125 -3.125 1.34375 -2.96875 C 0.5625 -2.8125 -0.0390625 -2.867188 -0.46875 -3.140625 C -0.90625 -3.410156 -0.988281 -4.007812 -0.71875 -4.9375 C -0.382812 -5.90625 0.078125 -6.820312 0.671875 -7.6875 C 0.804688 -7.875 1 -8.007812 1.25 -8.09375 C 1.4375 -8.132812 1.597656 -8.097656 1.734375 -7.984375 C 1.878906 -7.878906 1.9375 -7.75 1.90625 -7.59375 C 1.78125 -7.289062 1.640625 -6.984375 1.484375 -6.671875 C 1.328125 -6.367188 1.226562 -6.171875 1.1875 -6.078125 C 0.882812 -5.535156 0.675781 -4.96875 0.5625 -4.375 C 0.5625 -4.039062 1.015625 -4.019531 1.921875 -4.3125 C 2.828125 -4.613281 3.707031 -5.160156 4.5625 -5.953125 C 5.414062 -6.742188 5.820312 -6.972656 5.78125 -6.640625 C 5.738281 -6.316406 5.492188 -5.882812 5.046875 -5.34375 Z M 2.828125 -9.59375 C 2.785156 -9.5625 2.695312 -9.519531 2.5625 -9.46875 C 2.4375 -9.425781 2.300781 -9.394531 2.15625 -9.375 C 2.007812 -9.351562 1.890625 -9.375 1.796875 -9.4375 C 1.710938 -9.507812 1.710938 -9.648438 1.796875 -9.859375 C 1.929688 -10.210938 2.070312 -10.519531 2.21875 -10.78125 C 2.363281 -11.050781 2.554688 -11.347656 2.796875 -11.671875 C 2.941406 -11.816406 3.101562 -11.894531 3.28125 -11.90625 C 3.46875 -11.914062 3.617188 -11.867188 3.734375 -11.765625 C 3.847656 -11.660156 3.878906 -11.515625 3.828125 -11.328125 C 3.648438 -10.660156 3.316406 -10.082031 2.828125 -9.59375 Z M 2.828125 -9.59375 "/></g></g><g style="fill:#ffffff;fill-opacity:1;"><g transform="translate(97.060998, 206.237931)"><path style="stroke:none" d="M 2.015625 -3.015625 L 1.984375 -3.015625 C 0.753906 -3.023438 -0.0507812 -3.296875 -0.4375 -3.828125 C -0.832031 -4.359375 -0.816406 -5.0625 -0.390625 -5.9375 C -0.0351562 -6.601562 0.410156 -7.1875 0.953125 -7.6875 C 1.140625 -7.863281 1.328125 -8 1.515625 -8.09375 C 1.710938 -8.195312 1.9375 -8.25 2.1875 -8.25 C 2.332031 -8.28125 2.492188 -8.253906 2.671875 -8.171875 C 2.734375 -8.160156 2.796875 -8.140625 2.859375 -8.109375 C 3.003906 -8.140625 3.144531 -8.1875 3.28125 -8.25 C 3.3125 -8.28125 3.359375 -8.300781 3.421875 -8.3125 C 3.691406 -8.425781 3.984375 -8.472656 4.296875 -8.453125 C 4.429688 -8.453125 4.566406 -8.453125 4.703125 -8.453125 C 5.203125 -8.378906 5.578125 -8.171875 5.828125 -7.828125 C 6.078125 -7.484375 6.164062 -7.066406 6.09375 -6.578125 C 6.050781 -6.273438 5.957031 -5.992188 5.8125 -5.734375 C 4.84375 -3.992188 3.601562 -3.085938 2.09375 -3.015625 Z M 4.03125 -7.546875 C 3.351562 -7.578125 2.753906 -7.382812 2.234375 -6.96875 C 1.710938 -6.5625 1.328125 -6.09375 1.078125 -5.5625 C 0.828125 -5.03125 0.757812 -4.59375 0.875 -4.25 C 0.988281 -3.90625 1.34375 -3.8125 1.9375 -3.96875 C 2.601562 -4.164062 3.191406 -4.539062 3.703125 -5.09375 C 4.210938 -5.65625 4.523438 -6.1875 4.640625 -6.6875 C 4.753906 -7.195312 4.550781 -7.484375 4.03125 -7.546875 Z M 4.03125 -7.546875 "/></g></g><g style="fill:#ffffff;fill-opacity:1;"><g transform="translate(107.70018, 206.237931)"><path style="stroke:none" d=""/></g></g><g style="fill:#ffffff;fill-opacity:1;"><g transform="translate(121.19495, 206.237931)"><path style="stroke:none" d="M 50.28125 5.046875 C 50.289062 5.046875 50.316406 5.046875 50.359375 5.046875 C 50.484375 5.054688 50.609375 5.082031 50.734375 5.125 C 50.859375 5.164062 50.96875 5.238281 51.0625 5.34375 C 51.09375 5.375 51.117188 5.421875 51.140625 5.484375 C 51.160156 5.546875 51.160156 5.601562 51.140625 5.65625 C 51.117188 5.707031 51.082031 5.753906 51.03125 5.796875 C 50.988281 5.847656 50.953125 5.875 50.921875 5.875 C 50.691406 5.90625 50.457031 5.90625 50.21875 5.875 C 44.539062 4.695312 38.242188 3.9375 31.328125 3.59375 C 24.421875 3.25 18.050781 3.375 12.21875 3.96875 C 11.945312 3.988281 11.691406 4.019531 11.453125 4.0625 C 11.234375 4.082031 11.019531 4.097656 10.8125 4.109375 C 10.164062 4.203125 9.609375 4.492188 9.140625 4.984375 C 8.085938 6.117188 6.929688 7.125 5.671875 8 C 4.679688 8.664062 3.59375 9.035156 2.40625 9.109375 C 1.914062 9.148438 1.445312 9.078125 1 8.890625 C 0.582031 8.703125 0.3125 8.421875 0.1875 8.046875 C 0.0625 7.671875 0.113281 7.273438 0.34375 6.859375 C 0.71875 6.253906 1.332031 5.738281 2.1875 5.3125 C 3.039062 4.882812 3.953125 4.535156 4.921875 4.265625 C 5.890625 3.992188 6.707031 3.796875 7.375 3.671875 C 8.269531 3.503906 9 3.066406 9.5625 2.359375 C 12.257812 -0.921875 14.851562 -4.632812 17.34375 -8.78125 C 19.84375 -12.9375 22.140625 -17.210938 24.234375 -21.609375 C 26.335938 -26.003906 28.148438 -30.210938 29.671875 -34.234375 C 29.722656 -34.441406 29.804688 -34.625 29.921875 -34.78125 C 30.046875 -34.9375 30.226562 -35.046875 30.46875 -35.109375 C 30.695312 -35.140625 30.894531 -35.09375 31.0625 -34.96875 C 31.226562 -34.84375 31.289062 -34.671875 31.25 -34.453125 C 31.175781 -33.929688 31.046875 -33.421875 30.859375 -32.921875 C 29.410156 -29.097656 27.691406 -25.117188 25.703125 -20.984375 C 23.722656 -16.859375 21.566406 -12.832031 19.234375 -8.90625 C 16.898438 -4.976562 14.492188 -1.421875 12.015625 1.765625 C 11.492188 2.421875 11.332031 2.800781 11.53125 2.90625 C 11.738281 3.007812 12.140625 3 12.734375 2.875 C 12.867188 2.863281 13 2.847656 13.125 2.828125 C 17.78125 2.304688 22.609375 2.148438 27.609375 2.359375 C 32.609375 2.566406 37.539062 3.003906 42.40625 3.671875 C 44.113281 3.910156 45.789062 4.1875 47.4375 4.5 C 48.394531 4.6875 49.34375 4.867188 50.28125 5.046875 Z M 3.09375 7.90625 C 4.519531 7.332031 5.695312 6.425781 6.625 5.1875 C 5.09375 5.289062 3.734375 5.765625 2.546875 6.609375 C 2.171875 6.878906 1.953125 7.144531 1.890625 7.40625 C 1.828125 7.675781 1.898438 7.867188 2.109375 7.984375 C 2.328125 8.097656 2.65625 8.070312 3.09375 7.90625 Z M 3.09375 7.90625 "/></g></g><g style="fill:#ffffff;fill-opacity:1;"><g transform="translate(148.586908, 206.237931)"><path style="stroke:none" d="M 7.234375 -4.875 C 6.742188 -4.394531 6.171875 -3.984375 5.515625 -3.640625 C 4.867188 -3.296875 4.320312 -3.070312 3.875 -2.96875 C 3.4375 -2.863281 2.988281 -2.800781 2.53125 -2.78125 C 1.78125 -2.75 1.09375 -2.847656 0.46875 -3.078125 C -0.550781 -3.492188 -0.90625 -4.285156 -0.59375 -5.453125 C -0.300781 -6.460938 0.296875 -7.25 1.203125 -7.8125 C 2.109375 -8.382812 3.046875 -8.660156 4.015625 -8.640625 C 4.015625 -8.640625 4.019531 -8.640625 4.03125 -8.640625 C 4.28125 -8.660156 4.515625 -8.644531 4.734375 -8.59375 C 5.109375 -8.457031 5.34375 -8.238281 5.4375 -7.9375 C 5.539062 -7.632812 5.476562 -7.296875 5.25 -6.921875 C 4.707031 -6.097656 3.96875 -5.640625 3.03125 -5.546875 C 2.414062 -5.484375 1.820312 -5.515625 1.25 -5.640625 C 1.132812 -5.648438 1.035156 -5.617188 0.953125 -5.546875 C 0.867188 -5.472656 0.816406 -5.378906 0.796875 -5.265625 C 0.628906 -4.535156 0.851562 -4.070312 1.46875 -3.875 C 2.226562 -3.613281 3.019531 -3.613281 3.84375 -3.875 C 4.789062 -4.164062 5.691406 -4.722656 6.546875 -5.546875 C 7.398438 -6.367188 7.894531 -6.75 8.03125 -6.6875 C 8.164062 -6.632812 8.207031 -6.476562 8.15625 -6.21875 C 8.03125 -5.800781 7.722656 -5.351562 7.234375 -4.875 Z M 1.828125 -6.921875 C 1.773438 -6.859375 1.738281 -6.789062 1.71875 -6.71875 C 1.695312 -6.644531 1.722656 -6.582031 1.796875 -6.53125 C 2.097656 -6.351562 2.421875 -6.285156 2.765625 -6.328125 C 3.109375 -6.378906 3.398438 -6.515625 3.640625 -6.734375 C 3.890625 -6.953125 4 -7.21875 3.96875 -7.53125 C 3.9375 -7.632812 3.875 -7.703125 3.78125 -7.734375 C 3.6875 -7.765625 3.59375 -7.769531 3.5 -7.75 C 2.875 -7.644531 2.316406 -7.367188 1.828125 -6.921875 Z M 1.828125 -6.921875 "/></g></g><g style="fill:#ffffff;fill-opacity:1;"><g transform="translate(159.873357, 206.237931)"><path style="stroke:none" d="M 11.203125 -6.8125 C 11.273438 -6.820312 11.351562 -6.816406 11.4375 -6.796875 C 11.519531 -6.785156 11.582031 -6.75 11.625 -6.6875 C 11.675781 -6.59375 11.675781 -6.5 11.625 -6.40625 C 11.570312 -6.3125 11.488281 -6.242188 11.375 -6.203125 C 10.613281 -5.828125 9.847656 -5.441406 9.078125 -5.046875 C 8.171875 -4.578125 7.257812 -4.109375 6.34375 -3.640625 C 6.207031 -3.585938 6.078125 -3.523438 5.953125 -3.453125 C 5.753906 -3.335938 5.550781 -3.238281 5.34375 -3.15625 C 4.875 -2.925781 4.566406 -2.566406 4.421875 -2.078125 C 4.015625 -0.929688 3.585938 0.207031 3.140625 1.34375 C 2.554688 2.863281 1.835938 4.304688 0.984375 5.671875 C 0.492188 6.460938 -0.09375 7.160156 -0.78125 7.765625 C -1.59375 8.535156 -2.53125 9.023438 -3.59375 9.234375 C -5.34375 9.585938 -7.03125 9.472656 -8.65625 8.890625 C -9.320312 8.648438 -9.898438 8.269531 -10.390625 7.75 C -11.035156 7.039062 -11.0625 6.285156 -10.46875 5.484375 C -10.207031 5.148438 -9.914062 4.832031 -9.59375 4.53125 C -8.875 3.882812 -8.097656 3.300781 -7.265625 2.78125 C -4.253906 0.851562 -1.164062 -0.914062 2 -2.53125 C 2.007812 -2.53125 2.015625 -2.53125 2.015625 -2.53125 C 2.347656 -2.695312 2.675781 -2.875 3 -3.0625 C 3.050781 -3.101562 3.125 -3.191406 3.21875 -3.328125 C 3.3125 -3.472656 3.378906 -3.613281 3.421875 -3.75 C 3.460938 -3.894531 3.445312 -4 3.375 -4.0625 C 3.3125 -4.125 3.140625 -4.09375 2.859375 -3.96875 C 2.742188 -3.914062 2.640625 -3.867188 2.546875 -3.828125 C 2.304688 -3.703125 2.0625 -3.59375 1.8125 -3.5 C 0.363281 -3.15625 -0.359375 -3.71875 -0.359375 -5.1875 C -0.328125 -6.0625 -0.0625 -6.851562 0.4375 -7.5625 C 0.9375 -8.269531 1.566406 -8.820312 2.328125 -9.21875 C 3.097656 -9.625 3.9375 -9.78125 4.84375 -9.6875 C 4.9375 -9.6875 5.023438 -9.675781 5.109375 -9.65625 C 5.359375 -9.613281 5.609375 -9.59375 5.859375 -9.59375 C 6.109375 -9.59375 6.363281 -9.648438 6.625 -9.765625 C 6.90625 -9.867188 7.113281 -9.832031 7.25 -9.65625 C 7.394531 -9.488281 7.421875 -9.265625 7.328125 -8.984375 C 7.078125 -8.460938 6.835938 -7.929688 6.609375 -7.390625 C 6.429688 -7.054688 6.269531 -6.710938 6.125 -6.359375 C 5.945312 -5.984375 5.78125 -5.601562 5.625 -5.21875 C 5.394531 -4.707031 5.359375 -4.4375 5.515625 -4.40625 C 5.679688 -4.382812 5.957031 -4.476562 6.34375 -4.6875 C 6.394531 -4.695312 6.453125 -4.710938 6.515625 -4.734375 C 7.222656 -5.078125 7.9375 -5.410156 8.65625 -5.734375 C 9.164062 -5.960938 9.671875 -6.195312 10.171875 -6.4375 C 10.503906 -6.59375 10.847656 -6.71875 11.203125 -6.8125 Z M 2.1875 0.015625 C 2.445312 -0.734375 2.554688 -1.222656 2.515625 -1.453125 C 2.484375 -1.679688 2.320312 -1.738281 2.03125 -1.625 C 1.738281 -1.519531 1.363281 -1.320312 0.90625 -1.03125 C 0.601562 -0.84375 0.273438 -0.65625 -0.078125 -0.46875 C -2.210938 0.6875 -4.296875 1.925781 -6.328125 3.25 C -7.234375 3.769531 -8.035156 4.40625 -8.734375 5.15625 C -9.484375 5.945312 -9.457031 6.65625 -8.65625 7.28125 C -8.1875 7.644531 -7.664062 7.898438 -7.09375 8.046875 C -6.53125 8.203125 -5.90625 8.28125 -5.21875 8.28125 C -4.414062 8.332031 -3.671875 8.179688 -2.984375 7.828125 C -2.296875 7.472656 -1.660156 6.941406 -1.078125 6.234375 C -0.734375 5.765625 -0.398438 5.28125 -0.078125 4.78125 C 0.859375 3.257812 1.613281 1.671875 2.1875 0.015625 Z M 1.34375 -4.484375 C 1.5625 -4.390625 1.878906 -4.46875 2.296875 -4.71875 C 2.722656 -4.976562 3.15625 -5.328125 3.59375 -5.765625 C 4.03125 -6.210938 4.378906 -6.664062 4.640625 -7.125 C 4.898438 -7.59375 4.96875 -7.988281 4.84375 -8.3125 C 4.800781 -8.40625 4.742188 -8.488281 4.671875 -8.5625 C 4.535156 -8.726562 4.382812 -8.804688 4.21875 -8.796875 C 4.050781 -8.785156 3.875 -8.753906 3.6875 -8.703125 C 3.070312 -8.460938 2.523438 -8.039062 2.046875 -7.4375 C 1.578125 -6.84375 1.265625 -6.253906 1.109375 -5.671875 C 0.953125 -5.085938 1.03125 -4.691406 1.34375 -4.484375 Z M 1.34375 -4.484375 "/></g></g><g style="fill:#ffffff;fill-opacity:1;"><g transform="translate(174.611893, 206.237931)"><path style="stroke:none" d="M 9.203125 -6.46875 C 9.410156 -6.351562 9.425781 -6.078125 9.25 -5.640625 C 9.007812 -5.316406 8.75 -5.015625 8.46875 -4.734375 C 8.1875 -4.453125 7.878906 -4.203125 7.546875 -3.984375 C 7.523438 -3.984375 7.515625 -3.976562 7.515625 -3.96875 C 7.296875 -3.8125 7.0625 -3.675781 6.8125 -3.5625 C 4.789062 -2.832031 3.757812 -3.257812 3.71875 -4.84375 C 2.894531 -4.132812 2.34375 -3.703125 2.0625 -3.546875 C 1.394531 -3.148438 0.671875 -2.972656 -0.109375 -3.015625 C -0.679688 -3.046875 -1.070312 -3.21875 -1.28125 -3.53125 C -1.488281 -3.851562 -1.46875 -4.285156 -1.21875 -4.828125 C -0.84375 -5.679688 -0.3125 -6.441406 0.375 -7.109375 C 1.175781 -7.859375 2.066406 -8.457031 3.046875 -8.90625 C 3.566406 -9.164062 4.117188 -9.265625 4.703125 -9.203125 C 5.273438 -9.171875 5.617188 -8.847656 5.734375 -8.234375 C 5.785156 -8.046875 5.738281 -7.878906 5.59375 -7.734375 C 5.40625 -7.566406 5.191406 -7.53125 4.953125 -7.625 C 4.929688 -7.625 4.90625 -7.625 4.875 -7.625 C 4.851562 -7.632812 4.832031 -7.648438 4.8125 -7.671875 C 4.5625 -8.003906 4.3125 -8.144531 4.0625 -8.09375 C 3.8125 -8.039062 3.550781 -7.925781 3.28125 -7.75 C 1.976562 -6.988281 1.007812 -5.929688 0.375 -4.578125 C 0.332031 -4.515625 0.304688 -4.445312 0.296875 -4.375 C 0.296875 -4.300781 0.320312 -4.242188 0.375 -4.203125 C 0.519531 -4.148438 0.6875 -4.160156 0.875 -4.234375 C 1.0625 -4.304688 1.25 -4.410156 1.4375 -4.546875 C 1.625 -4.691406 1.78125 -4.8125 1.90625 -4.90625 C 1.925781 -4.925781 1.9375 -4.9375 1.9375 -4.9375 C 2.550781 -5.457031 3.15625 -5.988281 3.75 -6.53125 C 4.007812 -6.800781 4.332031 -6.957031 4.71875 -7 C 5.28125 -7 5.515625 -6.75 5.421875 -6.25 C 5.367188 -6.0625 5.3125 -5.875 5.25 -5.6875 C 5.03125 -4.882812 5.019531 -4.410156 5.21875 -4.265625 C 5.425781 -4.128906 5.738281 -4.128906 6.15625 -4.265625 C 6.582031 -4.410156 7.003906 -4.675781 7.421875 -5.0625 C 7.835938 -5.457031 8.1875 -5.816406 8.46875 -6.140625 C 8.757812 -6.472656 9.003906 -6.582031 9.203125 -6.46875 Z M 9.203125 -6.46875 "/></g></g><g style="fill:#ffffff;fill-opacity:1;"><g transform="translate(186.926353, 206.237931)"><path style="stroke:none" d="M 6.140625 -6.0625 C 6.421875 -6.332031 6.65625 -6.484375 6.84375 -6.515625 C 7.03125 -6.554688 7.148438 -6.53125 7.203125 -6.4375 C 7.253906 -6.34375 7.21875 -6.21875 7.09375 -6.0625 C 6.351562 -5.15625 5.519531 -4.375 4.59375 -3.71875 C 3.675781 -3.070312 2.726562 -2.695312 1.75 -2.59375 C 0.769531 -2.5 0.175781 -3.035156 -0.03125 -4.203125 C -0.175781 -5.359375 0.523438 -7.71875 2.078125 -11.28125 C 3.640625 -14.84375 4.875 -17.765625 5.78125 -20.046875 C 5.851562 -20.242188 5.96875 -20.421875 6.125 -20.578125 C 6.320312 -20.785156 6.5625 -20.832031 6.84375 -20.71875 C 6.9375 -20.675781 7.03125 -20.609375 7.125 -20.515625 C 7.21875 -20.421875 7.25 -20.253906 7.21875 -20.015625 C 3.207031 -10.523438 1.265625 -5.363281 1.390625 -4.53125 C 1.523438 -3.695312 2.0625 -3.488281 3 -3.90625 C 3.945312 -4.332031 4.675781 -4.765625 5.1875 -5.203125 C 5.695312 -5.640625 6.015625 -5.925781 6.140625 -6.0625 Z M 6.140625 -6.0625 "/></g></g><g style="fill:#ffffff;fill-opacity:1;"><g transform="translate(197.159407, 206.237931)"><path style="stroke:none" d="M 7.234375 -4.875 C 6.742188 -4.394531 6.171875 -3.984375 5.515625 -3.640625 C 4.867188 -3.296875 4.320312 -3.070312 3.875 -2.96875 C 3.4375 -2.863281 2.988281 -2.800781 2.53125 -2.78125 C 1.78125 -2.75 1.09375 -2.847656 0.46875 -3.078125 C -0.550781 -3.492188 -0.90625 -4.285156 -0.59375 -5.453125 C -0.300781 -6.460938 0.296875 -7.25 1.203125 -7.8125 C 2.109375 -8.382812 3.046875 -8.660156 4.015625 -8.640625 C 4.015625 -8.640625 4.019531 -8.640625 4.03125 -8.640625 C 4.28125 -8.660156 4.515625 -8.644531 4.734375 -8.59375 C 5.109375 -8.457031 5.34375 -8.238281 5.4375 -7.9375 C 5.539062 -7.632812 5.476562 -7.296875 5.25 -6.921875 C 4.707031 -6.097656 3.96875 -5.640625 3.03125 -5.546875 C 2.414062 -5.484375 1.820312 -5.515625 1.25 -5.640625 C 1.132812 -5.648438 1.035156 -5.617188 0.953125 -5.546875 C 0.867188 -5.472656 0.816406 -5.378906 0.796875 -5.265625 C 0.628906 -4.535156 0.851562 -4.070312 1.46875 -3.875 C 2.226562 -3.613281 3.019531 -3.613281 3.84375 -3.875 C 4.789062 -4.164062 5.691406 -4.722656 6.546875 -5.546875 C 7.398438 -6.367188 7.894531 -6.75 8.03125 -6.6875 C 8.164062 -6.632812 8.207031 -6.476562 8.15625 -6.21875 C 8.03125 -5.800781 7.722656 -5.351562 7.234375 -4.875 Z M 1.828125 -6.921875 C 1.773438 -6.859375 1.738281 -6.789062 1.71875 -6.71875 C 1.695312 -6.644531 1.722656 -6.582031 1.796875 -6.53125 C 2.097656 -6.351562 2.421875 -6.285156 2.765625 -6.328125 C 3.109375 -6.378906 3.398438 -6.515625 3.640625 -6.734375 C 3.890625 -6.953125 4 -7.21875 3.96875 -7.53125 C 3.9375 -7.632812 3.875 -7.703125 3.78125 -7.734375 C 3.6875 -7.765625 3.59375 -7.769531 3.5 -7.75 C 2.875 -7.644531 2.316406 -7.367188 1.828125 -6.921875 Z M 1.828125 -6.921875 "/></g></g><g style="fill:#ffffff;fill-opacity:1;"><g transform="translate(208.445856, 206.237931)"><path style="stroke:none" d=""/></g></g><g style="fill:#ffffff;fill-opacity:1;"><g transform="translate(221.940625, 206.237931)"><path style="stroke:none" d="M 68.625 -11.609375 C 67 -11.796875 65.367188 -11.890625 63.734375 -11.890625 C 63.015625 -11.910156 62.28125 -11.929688 61.53125 -11.953125 C 54.75 -12.222656 47.953125 -12.289062 41.140625 -12.15625 C 40.804688 -12.15625 40.53125 -12.15625 40.3125 -12.15625 C 39.9375 -12.1875 39.660156 -12.1875 39.484375 -12.15625 C 39.316406 -12.125 39.179688 -12.03125 39.078125 -11.875 C 38.984375 -11.71875 38.867188 -11.460938 38.734375 -11.109375 C 38.640625 -10.898438 38.53125 -10.644531 38.40625 -10.34375 C 37.269531 -7.875 36.226562 -5.363281 35.28125 -2.8125 C 34.664062 -1.15625 34.1875 0.535156 33.84375 2.265625 C 33.71875 2.804688 33.671875 3.332031 33.703125 3.84375 C 33.742188 4.363281 33.976562 4.828125 34.40625 5.234375 C 34.46875 5.273438 34.488281 5.328125 34.46875 5.390625 C 34.445312 5.453125 34.40625 5.507812 34.34375 5.5625 C 34.289062 5.625 34.226562 5.660156 34.15625 5.671875 C 33.15625 5.828125 32.550781 5.46875 32.34375 4.59375 C 32.226562 4.101562 32.207031 3.597656 32.28125 3.078125 C 32.28125 3.035156 32.28125 3.007812 32.28125 3 C 32.363281 2.101562 32.523438 1.21875 32.765625 0.34375 C 33.003906 -0.53125 33.269531 -1.40625 33.5625 -2.28125 C 34.519531 -4.925781 35.578125 -7.535156 36.734375 -10.109375 C 36.785156 -10.210938 36.832031 -10.320312 36.875 -10.4375 C 36.925781 -10.5625 36.988281 -10.691406 37.0625 -10.828125 C 37.15625 -11.015625 37.238281 -11.203125 37.3125 -11.390625 C 37.382812 -11.578125 37.414062 -11.769531 37.40625 -11.96875 C 37.3125 -12.050781 37.21875 -12.097656 37.125 -12.109375 C 37.03125 -12.128906 36.9375 -12.128906 36.84375 -12.109375 C 36.820312 -12.109375 36.800781 -12.109375 36.78125 -12.109375 C 35.976562 -12.109375 35.175781 -12.101562 34.375 -12.09375 C 34.15625 -12.09375 33.925781 -12.09375 33.6875 -12.09375 C 33.382812 -12.070312 33.128906 -11.972656 32.921875 -11.796875 C 32.722656 -11.628906 32.53125 -11.425781 32.34375 -11.1875 C 32.101562 -10.875 31.859375 -10.5625 31.609375 -10.25 C 30.566406 -8.914062 29.519531 -7.597656 28.46875 -6.296875 C 26.894531 -4.398438 25.253906 -2.570312 23.546875 -0.8125 C 21.847656 0.945312 20.039062 2.597656 18.125 4.140625 C 15.726562 6.117188 13.175781 7.863281 10.46875 9.375 C 6.34375 11.59375 2.015625 12.640625 -2.515625 12.515625 C -6.773438 12.421875 -10.617188 11.269531 -14.046875 9.0625 C -15.015625 8.445312 -15.875 7.703125 -16.625 6.828125 C -17.125 6.210938 -17.519531 5.546875 -17.8125 4.828125 C -18.101562 4.117188 -18.25 3.34375 -18.25 2.5 C -18.207031 1.488281 -17.972656 0.554688 -17.546875 -0.296875 C -17.128906 -1.160156 -16.550781 -1.941406 -15.8125 -2.640625 C -14.78125 -3.628906 -13.648438 -4.46875 -12.421875 -5.15625 C -11.234375 -5.851562 -10.003906 -6.457031 -8.734375 -6.96875 C -7.472656 -7.488281 -6.195312 -7.953125 -4.90625 -8.359375 C -2.832031 -9.035156 -0.734375 -9.597656 1.390625 -10.046875 C 3.515625 -10.503906 5.648438 -10.894531 7.796875 -11.21875 C 12.867188 -11.925781 17.957031 -12.394531 23.0625 -12.625 C 25.675781 -12.78125 28.273438 -12.859375 30.859375 -12.859375 C 31.566406 -12.835938 32.117188 -13.140625 32.515625 -13.765625 C 33.203125 -14.722656 33.890625 -15.691406 34.578125 -16.671875 C 35.648438 -18.160156 36.707031 -19.675781 37.75 -21.21875 C 42.59375 -28.445312 47.234375 -35.789062 51.671875 -43.25 C 52.046875 -43.882812 52.410156 -44.53125 52.765625 -45.1875 C 52.929688 -45.507812 53.109375 -45.84375 53.296875 -46.1875 C 53.515625 -46.613281 53.863281 -46.851562 54.34375 -46.90625 C 54.613281 -46.90625 54.804688 -46.832031 54.921875 -46.6875 C 55.046875 -46.539062 55.0625 -46.34375 54.96875 -46.09375 C 54.875 -45.894531 54.769531 -45.703125 54.65625 -45.515625 C 53.9375 -44.222656 53.296875 -42.921875 52.734375 -41.609375 C 52.523438 -41.140625 52.316406 -40.679688 52.109375 -40.234375 C 50.160156 -35.992188 48.195312 -31.75 46.21875 -27.5 C 44.71875 -24.21875 43.203125 -20.929688 41.671875 -17.640625 C 41.222656 -16.671875 40.785156 -15.703125 40.359375 -14.734375 C 40.265625 -14.535156 40.171875 -14.34375 40.078125 -14.15625 C 40.054688 -14.113281 40.039062 -14.066406 40.03125 -14.015625 C 39.96875 -13.878906 39.914062 -13.742188 39.875 -13.609375 C 39.84375 -13.484375 39.859375 -13.359375 39.921875 -13.234375 C 40.046875 -13.140625 40.191406 -13.085938 40.359375 -13.078125 C 40.523438 -13.066406 40.679688 -13.0625 40.828125 -13.0625 C 40.941406 -13.082031 41.046875 -13.09375 41.140625 -13.09375 C 41.847656 -13.070312 42.554688 -13.070312 43.265625 -13.09375 C 44.234375 -13.09375 45.203125 -13.082031 46.171875 -13.0625 C 51.453125 -12.96875 56.738281 -12.851562 62.03125 -12.71875 C 63.757812 -12.6875 65.484375 -12.613281 67.203125 -12.5 C 67.347656 -12.488281 67.503906 -12.484375 67.671875 -12.484375 C 67.765625 -12.484375 67.867188 -12.484375 67.984375 -12.484375 C 68.203125 -12.484375 68.414062 -12.460938 68.625 -12.421875 C 68.832031 -12.378906 69.03125 -12.304688 69.21875 -12.203125 C 69.25 -12.171875 69.269531 -12.128906 69.28125 -12.078125 C 69.300781 -12.023438 69.304688 -11.984375 69.296875 -11.953125 C 69.296875 -11.890625 69.269531 -11.832031 69.21875 -11.78125 C 69.175781 -11.738281 69.132812 -11.707031 69.09375 -11.6875 C 68.945312 -11.632812 68.789062 -11.609375 68.625 -11.609375 Z M 30.78125 -11.46875 C 30.832031 -11.582031 30.832031 -11.6875 30.78125 -11.78125 C 30.738281 -11.875 30.664062 -11.921875 30.5625 -11.921875 C 30.382812 -11.941406 30.207031 -11.941406 30.03125 -11.921875 C 29.9375 -11.921875 29.84375 -11.921875 29.75 -11.921875 C 23.351562 -11.847656 16.957031 -11.40625 10.5625 -10.59375 C 8.113281 -10.300781 5.675781 -9.910156 3.25 -9.421875 C 0.832031 -8.941406 -1.5625 -8.34375 -3.9375 -7.625 C -5.207031 -7.226562 -6.457031 -6.773438 -7.6875 -6.265625 C -8.925781 -5.765625 -10.132812 -5.171875 -11.3125 -4.484375 C -12.539062 -3.796875 -13.65625 -2.957031 -14.65625 -1.96875 C -15.832031 -0.757812 -16.492188 0.523438 -16.640625 1.890625 C -16.796875 3.265625 -16.429688 4.585938 -15.546875 5.859375 C -14.898438 6.742188 -14.125 7.503906 -13.21875 8.140625 C -9.914062 10.484375 -5.984375 11.675781 -1.421875 11.71875 C -0.253906 11.71875 1.085938 11.566406 2.609375 11.265625 C 4.109375 10.953125 5.5625 10.488281 6.96875 9.875 C 8.375 9.269531 9.738281 8.5625 11.0625 7.75 C 14.320312 5.738281 17.335938 3.398438 20.109375 0.734375 C 22.023438 -1.066406 23.832031 -2.960938 25.53125 -4.953125 C 27.238281 -6.953125 28.894531 -8.984375 30.5 -11.046875 C 30.59375 -11.203125 30.6875 -11.34375 30.78125 -11.46875 Z M 38.546875 -14.09375 C 39.773438 -16.882812 41.039062 -19.671875 42.34375 -22.453125 C 42.394531 -22.597656 42.585938 -23.03125 42.921875 -23.75 C 43.265625 -24.476562 43.648438 -25.320312 44.078125 -26.28125 C 44.515625 -27.25 44.914062 -28.160156 45.28125 -29.015625 C 45.644531 -29.867188 45.898438 -30.507812 46.046875 -30.9375 C 46.203125 -31.363281 46.160156 -31.398438 45.921875 -31.046875 C 45.859375 -30.972656 45.8125 -30.898438 45.78125 -30.828125 C 45.570312 -30.523438 45.378906 -30.226562 45.203125 -29.9375 C 43.648438 -27.53125 42.085938 -25.128906 40.515625 -22.734375 C 38.953125 -20.335938 37.332031 -17.976562 35.65625 -15.65625 C 35.5 -15.4375 35.335938 -15.203125 35.171875 -14.953125 C 34.847656 -14.515625 34.53125 -14.070312 34.21875 -13.625 C 34.09375 -13.4375 34.054688 -13.28125 34.109375 -13.15625 C 34.160156 -13.03125 34.289062 -12.96875 34.5 -12.96875 C 34.832031 -12.96875 35.164062 -12.976562 35.5 -13 C 36.019531 -13.039062 36.539062 -13.0625 37.0625 -13.0625 C 37.457031 -13.039062 37.765625 -13.125 37.984375 -13.3125 C 38.203125 -13.5 38.390625 -13.757812 38.546875 -14.09375 Z M 38.546875 -14.09375 "/></g></g><g style="fill:#ffffff;fill-opacity:1;"><g transform="translate(266.072679, 206.237931)"><path style="stroke:none" d="M 13.265625 -6.359375 C 13.566406 -6.546875 13.800781 -6.59375 13.96875 -6.5 C 14.132812 -6.40625 14.070312 -6.144531 13.78125 -5.71875 C 13.40625 -5.21875 12.734375 -4.679688 11.765625 -4.109375 C 10.804688 -3.546875 9.957031 -3.300781 9.21875 -3.375 C 8.488281 -3.445312 8.273438 -3.988281 8.578125 -5 C 8.890625 -6.019531 9.054688 -6.585938 9.078125 -6.703125 C 9.109375 -6.828125 9.085938 -6.894531 9.015625 -6.90625 C 8.941406 -6.925781 8.773438 -6.847656 8.515625 -6.671875 C 7.753906 -6.140625 7.007812 -5.585938 6.28125 -5.015625 C 5.96875 -4.773438 5.660156 -4.523438 5.359375 -4.265625 C 5.171875 -4.097656 4.976562 -3.929688 4.78125 -3.765625 C 4.78125 -3.765625 4.769531 -3.753906 4.75 -3.734375 C 4.53125 -3.515625 4.257812 -3.363281 3.9375 -3.28125 C 3.789062 -3.238281 3.632812 -3.222656 3.46875 -3.234375 C 3.3125 -3.253906 3.179688 -3.316406 3.078125 -3.421875 C 2.941406 -3.554688 2.890625 -3.691406 2.921875 -3.828125 C 2.960938 -3.960938 3.070312 -4.171875 3.25 -4.453125 C 3.425781 -4.734375 3.625 -5.039062 3.84375 -5.375 C 4.0625 -5.707031 4.179688 -5.910156 4.203125 -5.984375 C 4.222656 -6.066406 4.210938 -6.144531 4.171875 -6.21875 C 4.109375 -6.289062 4.039062 -6.3125 3.96875 -6.28125 C 3.894531 -6.257812 3.625 -6.082031 3.15625 -5.75 C 2.695312 -5.414062 2.0625 -4.945312 1.25 -4.34375 C 0.882812 -4.0625 0.523438 -3.773438 0.171875 -3.484375 C 0.078125 -3.390625 -0.0234375 -3.300781 -0.140625 -3.21875 C -0.398438 -3 -0.6875 -2.882812 -1 -2.875 C -1.226562 -2.851562 -1.394531 -2.898438 -1.5 -3.015625 C -1.613281 -3.140625 -1.632812 -3.300781 -1.5625 -3.5 C -1.507812 -3.65625 -1.445312 -3.796875 -1.375 -3.921875 C -1.332031 -3.984375 -1.300781 -4.039062 -1.28125 -4.09375 C -0.613281 -5.445312 0.046875 -6.804688 0.703125 -8.171875 C 0.710938 -8.210938 0.726562 -8.257812 0.75 -8.3125 C 0.820312 -8.457031 0.898438 -8.597656 0.984375 -8.734375 C 1.179688 -8.953125 1.421875 -9.023438 1.703125 -8.953125 C 2.023438 -8.859375 2.144531 -8.671875 2.0625 -8.390625 C 1.914062 -7.960938 1.769531 -7.546875 1.625 -7.140625 C 1.550781 -6.953125 1.472656 -6.765625 1.390625 -6.578125 C 1.265625 -6.242188 1.222656 -6.03125 1.265625 -5.9375 C 1.316406 -5.84375 1.53125 -5.90625 1.90625 -6.125 C 2.15625 -6.300781 2.40625 -6.472656 2.65625 -6.640625 C 2.945312 -6.835938 3.234375 -7.023438 3.515625 -7.203125 C 3.953125 -7.460938 4.394531 -7.6875 4.84375 -7.875 C 5.0625 -7.96875 5.285156 -8.035156 5.515625 -8.078125 C 5.742188 -8.128906 5.960938 -8.078125 6.171875 -7.921875 C 6.328125 -7.796875 6.390625 -7.648438 6.359375 -7.484375 C 6.335938 -7.328125 6.296875 -7.175781 6.234375 -7.03125 C 6.117188 -6.75 6.070312 -6.570312 6.09375 -6.5 C 6.113281 -6.425781 6.175781 -6.410156 6.28125 -6.453125 C 6.394531 -6.503906 6.585938 -6.613281 6.859375 -6.78125 C 7.140625 -6.945312 7.441406 -7.132812 7.765625 -7.34375 C 8.171875 -7.601562 8.597656 -7.851562 9.046875 -8.09375 C 9.421875 -8.332031 9.820312 -8.476562 10.25 -8.53125 C 10.832031 -8.570312 11.066406 -8.335938 10.953125 -7.828125 C 10.847656 -7.316406 10.644531 -6.707031 10.34375 -6 C 10.039062 -5.289062 10.007812 -4.851562 10.25 -4.6875 C 10.488281 -4.53125 11.023438 -4.75 11.859375 -5.34375 C 12.691406 -5.945312 13.160156 -6.285156 13.265625 -6.359375 Z M 13.265625 -6.359375 "/></g></g><g style="fill:#ffffff;fill-opacity:1;"><g transform="translate(283.400269, 206.237931)"><path style="stroke:none" d="M 9.203125 -6.46875 C 9.410156 -6.351562 9.425781 -6.078125 9.25 -5.640625 C 9.007812 -5.316406 8.75 -5.015625 8.46875 -4.734375 C 8.1875 -4.453125 7.878906 -4.203125 7.546875 -3.984375 C 7.523438 -3.984375 7.515625 -3.976562 7.515625 -3.96875 C 7.296875 -3.8125 7.0625 -3.675781 6.8125 -3.5625 C 4.789062 -2.832031 3.757812 -3.257812 3.71875 -4.84375 C 2.894531 -4.132812 2.34375 -3.703125 2.0625 -3.546875 C 1.394531 -3.148438 0.671875 -2.972656 -0.109375 -3.015625 C -0.679688 -3.046875 -1.070312 -3.21875 -1.28125 -3.53125 C -1.488281 -3.851562 -1.46875 -4.285156 -1.21875 -4.828125 C -0.84375 -5.679688 -0.3125 -6.441406 0.375 -7.109375 C 1.175781 -7.859375 2.066406 -8.457031 3.046875 -8.90625 C 3.566406 -9.164062 4.117188 -9.265625 4.703125 -9.203125 C 5.273438 -9.171875 5.617188 -8.847656 5.734375 -8.234375 C 5.785156 -8.046875 5.738281 -7.878906 5.59375 -7.734375 C 5.40625 -7.566406 5.191406 -7.53125 4.953125 -7.625 C 4.929688 -7.625 4.90625 -7.625 4.875 -7.625 C 4.851562 -7.632812 4.832031 -7.648438 4.8125 -7.671875 C 4.5625 -8.003906 4.3125 -8.144531 4.0625 -8.09375 C 3.8125 -8.039062 3.550781 -7.925781 3.28125 -7.75 C 1.976562 -6.988281 1.007812 -5.929688 0.375 -4.578125 C 0.332031 -4.515625 0.304688 -4.445312 0.296875 -4.375 C 0.296875 -4.300781 0.320312 -4.242188 0.375 -4.203125 C 0.519531 -4.148438 0.6875 -4.160156 0.875 -4.234375 C 1.0625 -4.304688 1.25 -4.410156 1.4375 -4.546875 C 1.625 -4.691406 1.78125 -4.8125 1.90625 -4.90625 C 1.925781 -4.925781 1.9375 -4.9375 1.9375 -4.9375 C 2.550781 -5.457031 3.15625 -5.988281 3.75 -6.53125 C 4.007812 -6.800781 4.332031 -6.957031 4.71875 -7 C 5.28125 -7 5.515625 -6.75 5.421875 -6.25 C 5.367188 -6.0625 5.3125 -5.875 5.25 -5.6875 C 5.03125 -4.882812 5.019531 -4.410156 5.21875 -4.265625 C 5.425781 -4.128906 5.738281 -4.128906 6.15625 -4.265625 C 6.582031 -4.410156 7.003906 -4.675781 7.421875 -5.0625 C 7.835938 -5.457031 8.1875 -5.816406 8.46875 -6.140625 C 8.757812 -6.472656 9.003906 -6.582031 9.203125 -6.46875 Z M 9.203125 -6.46875 "/></g></g><g style="fill:#ffffff;fill-opacity:1;"><g transform="translate(295.714729, 206.237931)"><path style="stroke:none" d="M 6.09375 -7.796875 C 6.019531 -7.210938 5.742188 -6.832031 5.265625 -6.65625 C 4.796875 -6.476562 4.640625 -6.707031 4.796875 -7.34375 C 4.960938 -7.988281 4.671875 -8.148438 3.921875 -7.828125 C 3.179688 -7.515625 2.570312 -7.117188 2.09375 -6.640625 C 1.351562 -5.878906 0.691406 -5.054688 0.109375 -4.171875 C 0.0546875 -4.097656 0.0078125 -4.035156 -0.03125 -3.984375 C -0.195312 -3.742188 -0.363281 -3.507812 -0.53125 -3.28125 C -0.644531 -3.132812 -0.773438 -3.039062 -0.921875 -3 C -1.066406 -2.96875 -1.21875 -2.960938 -1.375 -2.984375 C -1.519531 -3.003906 -1.628906 -3.054688 -1.703125 -3.140625 C -1.773438 -3.234375 -1.785156 -3.347656 -1.734375 -3.484375 C -1.640625 -3.710938 -1.523438 -3.941406 -1.390625 -4.171875 C -0.628906 -5.585938 0.140625 -7.007812 0.921875 -8.4375 C 0.941406 -8.445312 0.953125 -8.460938 0.953125 -8.484375 C 1.066406 -8.703125 1.195312 -8.90625 1.34375 -9.09375 C 1.507812 -9.28125 1.703125 -9.351562 1.921875 -9.3125 C 2.148438 -9.28125 2.300781 -9.148438 2.375 -8.921875 C 2.46875 -8.628906 2.546875 -8.460938 2.609375 -8.421875 C 2.679688 -8.378906 2.835938 -8.40625 3.078125 -8.5 C 3.578125 -8.6875 4.066406 -8.816406 4.546875 -8.890625 C 5.035156 -8.972656 5.429688 -8.957031 5.734375 -8.84375 C 6.046875 -8.726562 6.164062 -8.378906 6.09375 -7.796875 Z M 6.09375 -7.796875 "/></g></g><g style="fill:#ffffff;fill-opacity:1;"><g transform="translate(305.960464, 206.237931)"><path style="stroke:none" d="M 9.203125 -6.46875 C 9.410156 -6.351562 9.425781 -6.078125 9.25 -5.640625 C 9.007812 -5.316406 8.75 -5.015625 8.46875 -4.734375 C 8.1875 -4.453125 7.878906 -4.203125 7.546875 -3.984375 C 7.523438 -3.984375 7.515625 -3.976562 7.515625 -3.96875 C 7.296875 -3.8125 7.0625 -3.675781 6.8125 -3.5625 C 4.789062 -2.832031 3.757812 -3.257812 3.71875 -4.84375 C 2.894531 -4.132812 2.34375 -3.703125 2.0625 -3.546875 C 1.394531 -3.148438 0.671875 -2.972656 -0.109375 -3.015625 C -0.679688 -3.046875 -1.070312 -3.21875 -1.28125 -3.53125 C -1.488281 -3.851562 -1.46875 -4.285156 -1.21875 -4.828125 C -0.84375 -5.679688 -0.3125 -6.441406 0.375 -7.109375 C 1.175781 -7.859375 2.066406 -8.457031 3.046875 -8.90625 C 3.566406 -9.164062 4.117188 -9.265625 4.703125 -9.203125 C 5.273438 -9.171875 5.617188 -8.847656 5.734375 -8.234375 C 5.785156 -8.046875 5.738281 -7.878906 5.59375 -7.734375 C 5.40625 -7.566406 5.191406 -7.53125 4.953125 -7.625 C 4.929688 -7.625 4.90625 -7.625 4.875 -7.625 C 4.851562 -7.632812 4.832031 -7.648438 4.8125 -7.671875 C 4.5625 -8.003906 4.3125 -8.144531 4.0625 -8.09375 C 3.8125 -8.039062 3.550781 -7.925781 3.28125 -7.75 C 1.976562 -6.988281 1.007812 -5.929688 0.375 -4.578125 C 0.332031 -4.515625 0.304688 -4.445312 0.296875 -4.375 C 0.296875 -4.300781 0.320312 -4.242188 0.375 -4.203125 C 0.519531 -4.148438 0.6875 -4.160156 0.875 -4.234375 C 1.0625 -4.304688 1.25 -4.410156 1.4375 -4.546875 C 1.625 -4.691406 1.78125 -4.8125 1.90625 -4.90625 C 1.925781 -4.925781 1.9375 -4.9375 1.9375 -4.9375 C 2.550781 -5.457031 3.15625 -5.988281 3.75 -6.53125 C 4.007812 -6.800781 4.332031 -6.957031 4.71875 -7 C 5.28125 -7 5.515625 -6.75 5.421875 -6.25 C 5.367188 -6.0625 5.3125 -5.875 5.25 -5.6875 C 5.03125 -4.882812 5.019531 -4.410156 5.21875 -4.265625 C 5.425781 -4.128906 5.738281 -4.128906 6.15625 -4.265625 C 6.582031 -4.410156 7.003906 -4.675781 7.421875 -5.0625 C 7.835938 -5.457031 8.1875 -5.816406 8.46875 -6.140625 C 8.757812 -6.472656 9.003906 -6.582031 9.203125 -6.46875 Z M 9.203125 -6.46875 "/></g></g><g style="fill:#ffffff;fill-opacity:1;"><g transform="translate(318.274947, 206.237931)"><path style="stroke:none" d="M 10.0625 -6.328125 C 10.195312 -6.160156 10.023438 -5.851562 9.546875 -5.40625 C 9.078125 -4.957031 8.570312 -4.582031 8.03125 -4.28125 C 7.5 -3.976562 6.882812 -3.671875 6.1875 -3.359375 C 5.71875 -3.160156 5.21875 -3.09375 4.6875 -3.15625 C 4.164062 -3.226562 3.90625 -3.546875 3.90625 -4.109375 C 3.90625 -4.679688 4.035156 -5.242188 4.296875 -5.796875 C 4.566406 -6.378906 4.625 -6.675781 4.46875 -6.6875 C 4.320312 -6.707031 4.019531 -6.566406 3.5625 -6.265625 C 2.34375 -5.472656 1.210938 -4.566406 0.171875 -3.546875 C -0.0976562 -3.203125 -0.453125 -3.015625 -0.890625 -2.984375 C -1.109375 -2.984375 -1.28125 -3.050781 -1.40625 -3.1875 C -1.53125 -3.332031 -1.546875 -3.484375 -1.453125 -3.640625 C -0.703125 -5.023438 0.0507812 -6.390625 0.8125 -7.734375 C 0.976562 -8.015625 1.234375 -8.1875 1.578125 -8.25 C 1.722656 -8.28125 1.851562 -8.238281 1.96875 -8.125 C 2.09375 -8.007812 2.15625 -7.878906 2.15625 -7.734375 C 2.144531 -7.597656 2.09375 -7.4375 2 -7.25 C 1.957031 -7.132812 1.914062 -7.023438 1.875 -6.921875 C 1.832031 -6.828125 1.816406 -6.742188 1.828125 -6.671875 C 1.847656 -6.609375 1.90625 -6.585938 2 -6.609375 C 2.125 -6.679688 2.25 -6.753906 2.375 -6.828125 C 2.695312 -7.015625 3.003906 -7.191406 3.296875 -7.359375 C 3.554688 -7.515625 3.832031 -7.648438 4.125 -7.765625 C 4.414062 -7.890625 4.71875 -7.972656 5.03125 -8.015625 C 5.539062 -8.046875 5.898438 -7.929688 6.109375 -7.671875 C 6.316406 -7.410156 6.34375 -7.046875 6.1875 -6.578125 C 6.007812 -6.148438 5.832031 -5.726562 5.65625 -5.3125 C 5.425781 -4.925781 5.382812 -4.628906 5.53125 -4.421875 C 5.6875 -4.222656 6.394531 -4.457031 7.65625 -5.125 L 8.609375 -5.6875 C 9.503906 -6.257812 9.988281 -6.472656 10.0625 -6.328125 Z M 10.0625 -6.328125 "/></g></g><g style="fill:#ffffff;fill-opacity:1;"><g transform="translate(331.477812, 206.237931)"><path style="stroke:none" d="M 7.9375 -6.125 C 6.800781 -4.789062 5.6875 -3.804688 4.59375 -3.171875 C 3.507812 -2.535156 2.347656 -2.328125 1.109375 -2.546875 C -0.128906 -2.765625 -0.640625 -3.597656 -0.421875 -5.046875 C -0.265625 -5.765625 -0.0546875 -6.472656 0.203125 -7.171875 C 0.859375 -8.785156 1.519531 -10.394531 2.1875 -12 C 2.40625 -12.570312 2.632812 -13.148438 2.875 -13.734375 C 2.9375 -13.859375 2.992188 -13.988281 3.046875 -14.125 C 3.140625 -14.332031 3.234375 -14.546875 3.328125 -14.765625 C 3.460938 -15.140625 3.3125 -15.332031 2.875 -15.34375 C 2.632812 -15.34375 2.394531 -15.34375 2.15625 -15.34375 C 2.050781 -15.34375 1.929688 -15.34375 1.796875 -15.34375 C 1.660156 -15.332031 1.523438 -15.316406 1.390625 -15.296875 C 1.171875 -15.273438 0.953125 -15.265625 0.734375 -15.265625 C 0.523438 -15.265625 0.328125 -15.320312 0.140625 -15.4375 C 0.0859375 -15.457031 0.046875 -15.488281 0.015625 -15.53125 C -0.015625 -15.582031 -0.03125 -15.632812 -0.03125 -15.6875 C -0.0078125 -15.726562 0.015625 -15.769531 0.046875 -15.8125 C 0.0859375 -15.851562 0.140625 -15.882812 0.203125 -15.90625 C 0.390625 -15.976562 0.582031 -16.035156 0.78125 -16.078125 C 1.3125 -16.097656 1.832031 -16.117188 2.34375 -16.140625 C 2.550781 -16.140625 2.726562 -16.140625 2.875 -16.140625 C 3.21875 -16.140625 3.472656 -16.148438 3.640625 -16.171875 C 3.804688 -16.203125 3.9375 -16.289062 4.03125 -16.4375 C 4.132812 -16.59375 4.253906 -16.828125 4.390625 -17.140625 C 4.460938 -17.304688 4.554688 -17.492188 4.671875 -17.703125 C 4.953125 -18.296875 5.234375 -18.898438 5.515625 -19.515625 C 5.640625 -19.796875 5.769531 -20.066406 5.90625 -20.328125 C 6.007812 -20.585938 6.179688 -20.789062 6.421875 -20.9375 C 6.648438 -21.039062 6.847656 -21.03125 7.015625 -20.90625 C 7.066406 -20.875 7.109375 -20.816406 7.140625 -20.734375 C 7.171875 -20.660156 7.1875 -20.597656 7.1875 -20.546875 C 7.1875 -20.210938 7.101562 -19.882812 6.9375 -19.5625 C 6.894531 -19.5 6.851562 -19.421875 6.8125 -19.328125 C 6.707031 -19.015625 6.59375 -18.703125 6.46875 -18.390625 C 6.21875 -17.816406 5.984375 -17.226562 5.765625 -16.625 C 5.703125 -16.519531 5.695312 -16.425781 5.75 -16.34375 C 5.8125 -16.257812 5.894531 -16.21875 6 -16.21875 C 6.601562 -16.195312 7.191406 -16.1875 7.765625 -16.1875 C 8.066406 -16.1875 8.363281 -16.1875 8.65625 -16.1875 C 9.59375 -16.164062 9.96875 -16.035156 9.78125 -15.796875 C 9.644531 -15.648438 9.503906 -15.566406 9.359375 -15.546875 C 9.210938 -15.523438 9.0625 -15.523438 8.90625 -15.546875 C 8.8125 -15.546875 8.722656 -15.546875 8.640625 -15.546875 C 7.691406 -15.492188 6.75 -15.457031 5.8125 -15.4375 C 5.382812 -15.4375 5.097656 -15.242188 4.953125 -14.859375 C 4.796875 -14.484375 4.644531 -14.109375 4.5 -13.734375 C 4.289062 -13.242188 4.09375 -12.765625 3.90625 -12.296875 C 3.71875 -11.859375 3.535156 -11.414062 3.359375 -10.96875 C 2.867188 -9.832031 2.398438 -8.691406 1.953125 -7.546875 C 1.671875 -6.804688 1.453125 -6.046875 1.296875 -5.265625 C 0.941406 -3.859375 1.488281 -3.316406 2.9375 -3.640625 C 4.351562 -3.984375 5.84375 -5.007812 7.40625 -6.71875 C 8.082031 -7.144531 8.257812 -6.945312 7.9375 -6.125 Z M 7.9375 -6.125 "/></g></g><g style="fill:#ffffff;fill-opacity:1;"><g transform="translate(342.586568, 206.237931)"><path style="stroke:none" d="M 2.015625 -3.015625 L 1.984375 -3.015625 C 0.753906 -3.023438 -0.0507812 -3.296875 -0.4375 -3.828125 C -0.832031 -4.359375 -0.816406 -5.0625 -0.390625 -5.9375 C -0.0351562 -6.601562 0.410156 -7.1875 0.953125 -7.6875 C 1.140625 -7.863281 1.328125 -8 1.515625 -8.09375 C 1.710938 -8.195312 1.9375 -8.25 2.1875 -8.25 C 2.332031 -8.28125 2.492188 -8.253906 2.671875 -8.171875 C 2.734375 -8.160156 2.796875 -8.140625 2.859375 -8.109375 C 3.003906 -8.140625 3.144531 -8.1875 3.28125 -8.25 C 3.3125 -8.28125 3.359375 -8.300781 3.421875 -8.3125 C 3.691406 -8.425781 3.984375 -8.472656 4.296875 -8.453125 C 4.429688 -8.453125 4.566406 -8.453125 4.703125 -8.453125 C 5.203125 -8.378906 5.578125 -8.171875 5.828125 -7.828125 C 6.078125 -7.484375 6.164062 -7.066406 6.09375 -6.578125 C 6.050781 -6.273438 5.957031 -5.992188 5.8125 -5.734375 C 4.84375 -3.992188 3.601562 -3.085938 2.09375 -3.015625 Z M 4.03125 -7.546875 C 3.351562 -7.578125 2.753906 -7.382812 2.234375 -6.96875 C 1.710938 -6.5625 1.328125 -6.09375 1.078125 -5.5625 C 0.828125 -5.03125 0.757812 -4.59375 0.875 -4.25 C 0.988281 -3.90625 1.34375 -3.8125 1.9375 -3.96875 C 2.601562 -4.164062 3.191406 -4.539062 3.703125 -5.09375 C 4.210938 -5.65625 4.523438 -6.1875 4.640625 -6.6875 C 4.753906 -7.195312 4.550781 -7.484375 4.03125 -7.546875 Z M 4.03125 -7.546875 "/></g></g><g style="fill:#000000;fill-opacity:1;"><g transform="translate(95.120486, 283.908116)"><path style="stroke:none" d="M 6.71875 0.359375 C 5.757812 0.359375 4.847656 0.238281 3.984375 0 C 3.128906 -0.25 2.382812 -0.585938 1.75 -1.015625 C 1.113281 -1.441406 0.628906 -1.9375 0.296875 -2.5 L 1.390625 -3.671875 C 1.648438 -3.179688 2.050781 -2.742188 2.59375 -2.359375 C 3.132812 -1.984375 3.769531 -1.6875 4.5 -1.46875 C 5.238281 -1.257812 6.015625 -1.15625 6.828125 -1.15625 C 7.492188 -1.15625 8.070312 -1.226562 8.5625 -1.375 C 9.0625 -1.519531 9.445312 -1.71875 9.71875 -1.96875 C 9.988281 -2.226562 10.125 -2.515625 10.125 -2.828125 C 10.125 -3.210938 9.898438 -3.53125 9.453125 -3.78125 C 9.003906 -4.03125 8.28125 -4.222656 7.28125 -4.359375 L 4.8125 -4.75 C 3.445312 -4.925781 2.457031 -5.234375 1.84375 -5.671875 C 1.226562 -6.117188 0.921875 -6.742188 0.921875 -7.546875 C 0.921875 -8.222656 1.140625 -8.800781 1.578125 -9.28125 C 2.015625 -9.757812 2.617188 -10.128906 3.390625 -10.390625 C 4.160156 -10.648438 5.039062 -10.78125 6.03125 -10.78125 C 6.800781 -10.78125 7.523438 -10.691406 8.203125 -10.515625 C 8.890625 -10.335938 9.5 -10.09375 10.03125 -9.78125 C 10.5625 -9.476562 10.976562 -9.117188 11.28125 -8.703125 L 10.328125 -7.515625 C 10.054688 -7.867188 9.695312 -8.175781 9.25 -8.4375 C 8.8125 -8.707031 8.316406 -8.914062 7.765625 -9.0625 C 7.222656 -9.21875 6.648438 -9.296875 6.046875 -9.296875 C 5.441406 -9.296875 4.90625 -9.222656 4.4375 -9.078125 C 3.96875 -8.941406 3.597656 -8.753906 3.328125 -8.515625 C 3.066406 -8.273438 2.9375 -7.992188 2.9375 -7.671875 C 2.9375 -7.316406 3.117188 -7.03125 3.484375 -6.8125 C 3.859375 -6.601562 4.453125 -6.445312 5.265625 -6.34375 L 7.703125 -6 C 9.253906 -5.78125 10.378906 -5.4375 11.078125 -4.96875 C 11.785156 -4.5 12.140625 -3.84375 12.140625 -3 C 12.140625 -2.332031 11.914062 -1.742188 11.46875 -1.234375 C 11.019531 -0.734375 10.382812 -0.34375 9.5625 -0.0625 C 8.75 0.21875 7.800781 0.359375 6.71875 0.359375 Z M 6.71875 0.359375 "/></g></g><g style="fill:#000000;fill-opacity:1;"><g transform="translate(110.827776, 283.908116)"><path style="stroke:none" d="M 4.765625 0 L 4.765625 -8.828125 L 0.09375 -8.828125 L 0.09375 -10.421875 L 11.484375 -10.421875 L 11.484375 -8.828125 L 6.8125 -8.828125 L 6.8125 0 Z M 4.765625 0 "/></g></g><g style="fill:#000000;fill-opacity:1;"><g transform="translate(125.66734, 283.908116)"><path style="stroke:none" d="M 6.609375 0.34375 C 5.390625 0.34375 4.328125 0.144531 3.421875 -0.25 C 2.523438 -0.644531 1.828125 -1.21875 1.328125 -1.96875 C 0.835938 -2.726562 0.59375 -3.65625 0.59375 -4.75 L 0.59375 -10.421875 L 2.640625 -10.421875 L 2.640625 -4.8125 C 2.640625 -4.03125 2.804688 -3.378906 3.140625 -2.859375 C 3.472656 -2.335938 3.9375 -1.945312 4.53125 -1.6875 C 5.125 -1.425781 5.816406 -1.296875 6.609375 -1.296875 C 7.804688 -1.296875 8.769531 -1.585938 9.5 -2.171875 C 10.226562 -2.765625 10.59375 -3.644531 10.59375 -4.8125 L 10.59375 -10.421875 L 12.625 -10.421875 L 12.625 -4.75 C 12.625 -3.65625 12.375 -2.726562 11.875 -1.96875 C 11.382812 -1.21875 10.6875 -0.644531 9.78125 -0.25 C 8.882812 0.144531 7.828125 0.34375 6.609375 0.34375 Z M 6.609375 0.34375 "/></g></g><g style="fill:#000000;fill-opacity:1;"><g transform="translate(142.154098, 283.908116)"><path style="stroke:none" d="M 0.734375 0 L 0.734375 -10.421875 L 7.28125 -10.421875 C 9.25 -10.421875 10.757812 -9.96875 11.8125 -9.0625 C 12.875 -8.164062 13.40625 -6.878906 13.40625 -5.203125 C 13.40625 -3.535156 12.875 -2.25 11.8125 -1.34375 C 10.757812 -0.445312 9.25 0 7.28125 0 Z M 2.75 -1.546875 L 7.109375 -1.546875 C 8.484375 -1.546875 9.539062 -1.859375 10.28125 -2.484375 C 11.03125 -3.117188 11.40625 -4.023438 11.40625 -5.203125 C 11.40625 -6.378906 11.03125 -7.28125 10.28125 -7.90625 C 9.539062 -8.53125 8.484375 -8.84375 7.109375 -8.84375 L 2.75 -8.84375 Z M 2.75 -1.546875 "/></g></g><g style="fill:#000000;fill-opacity:1;"><g transform="translate(159.390925, 283.908116)"><path style="stroke:none" d="M 0.734375 0 L 0.734375 -10.421875 L 2.765625 -10.421875 L 2.765625 0 Z M 0.734375 0 "/></g></g><g style="fill:#000000;fill-opacity:1;"><g transform="translate(166.156305, 283.908116)"><path style="stroke:none" d="M 7.8125 0.375 C 6.726562 0.375 5.742188 0.238281 4.859375 -0.03125 C 3.972656 -0.300781 3.207031 -0.679688 2.5625 -1.171875 C 1.925781 -1.671875 1.429688 -2.257812 1.078125 -2.9375 C 0.734375 -3.625 0.5625 -4.378906 0.5625 -5.203125 C 0.5625 -6.023438 0.734375 -6.773438 1.078125 -7.453125 C 1.429688 -8.140625 1.925781 -8.734375 2.5625 -9.234375 C 3.207031 -9.734375 3.972656 -10.117188 4.859375 -10.390625 C 5.742188 -10.660156 6.726562 -10.796875 7.8125 -10.796875 C 8.882812 -10.796875 9.863281 -10.660156 10.75 -10.390625 C 11.644531 -10.117188 12.414062 -9.734375 13.0625 -9.234375 C 13.707031 -8.734375 14.203125 -8.140625 14.546875 -7.453125 C 14.898438 -6.773438 15.078125 -6.023438 15.078125 -5.203125 C 15.078125 -4.378906 14.898438 -3.625 14.546875 -2.9375 C 14.203125 -2.257812 13.707031 -1.671875 13.0625 -1.171875 C 12.414062 -0.679688 11.644531 -0.300781 10.75 -0.03125 C 9.863281 0.238281 8.882812 0.375 7.8125 0.375 Z M 7.8125 -1.21875 C 8.832031 -1.21875 9.734375 -1.382812 10.515625 -1.71875 C 11.304688 -2.0625 11.921875 -2.53125 12.359375 -3.125 C 12.804688 -3.726562 13.03125 -4.421875 13.03125 -5.203125 C 13.03125 -5.984375 12.804688 -6.671875 12.359375 -7.265625 C 11.921875 -7.867188 11.304688 -8.335938 10.515625 -8.671875 C 9.734375 -9.015625 8.832031 -9.1875 7.8125 -9.1875 C 6.789062 -9.1875 5.882812 -9.015625 5.09375 -8.671875 C 4.3125 -8.335938 3.703125 -7.867188 3.265625 -7.265625 C 2.828125 -6.671875 2.609375 -5.984375 2.609375 -5.203125 C 2.609375 -4.421875 2.828125 -3.726562 3.265625 -3.125 C 3.703125 -2.53125 4.3125 -2.0625 5.09375 -1.71875 C 5.882812 -1.382812 6.789062 -1.21875 7.8125 -1.21875 Z M 7.8125 -1.21875 "/></g></g><g style="fill:#000000;fill-opacity:1;"><g transform="translate(185.055031, 283.908116)"><path style="stroke:none" d=""/></g></g><g style="fill:#000000;fill-opacity:1;"><g transform="translate(192.570469, 283.908116)"><path style="stroke:none" d="M 0.734375 0 L 0.734375 -10.421875 L 2.78125 -10.421875 L 2.78125 -1.625 L 9.453125 -1.625 L 9.453125 0 Z M 0.734375 0 "/></g></g><g style="fill:#000000;fill-opacity:1;"><g transform="translate(205.409869, 283.908116)"><path style="stroke:none" d="M 0.734375 0 L 0.734375 -10.421875 L 11.09375 -10.421875 L 11.09375 -8.921875 L 2.71875 -8.921875 L 2.71875 -6.046875 L 10.515625 -6.046875 L 10.515625 -4.671875 L 2.71875 -4.671875 L 2.71875 -1.484375 L 11.25 -1.484375 L 11.25 0 Z M 0.734375 0 "/></g></g><g style="fill:#000000;fill-opacity:1;"><g transform="translate(220.220022, 283.908116)"><path style="stroke:none" d="M 7.46875 0.34375 C 6.457031 0.34375 5.53125 0.207031 4.6875 -0.0625 C 3.84375 -0.332031 3.113281 -0.710938 2.5 -1.203125 C 1.882812 -1.691406 1.40625 -2.269531 1.0625 -2.9375 C 0.726562 -3.601562 0.5625 -4.332031 0.5625 -5.125 C 0.5625 -5.945312 0.734375 -6.703125 1.078125 -7.390625 C 1.421875 -8.078125 1.898438 -8.671875 2.515625 -9.171875 C 3.140625 -9.671875 3.878906 -10.054688 4.734375 -10.328125 C 5.585938 -10.609375 6.53125 -10.75 7.5625 -10.75 C 8.519531 -10.75 9.414062 -10.613281 10.25 -10.34375 C 11.082031 -10.070312 11.789062 -9.703125 12.375 -9.234375 C 12.957031 -8.765625 13.335938 -8.21875 13.515625 -7.59375 L 11.609375 -7.15625 C 11.472656 -7.5625 11.203125 -7.914062 10.796875 -8.21875 C 10.398438 -8.519531 9.914062 -8.753906 9.34375 -8.921875 C 8.78125 -9.097656 8.1875 -9.1875 7.5625 -9.1875 C 6.59375 -9.195312 5.734375 -9.03125 4.984375 -8.6875 C 4.234375 -8.34375 3.648438 -7.867188 3.234375 -7.265625 C 2.816406 -6.660156 2.609375 -5.960938 2.609375 -5.171875 C 2.609375 -4.398438 2.835938 -3.710938 3.296875 -3.109375 C 3.753906 -2.503906 4.382812 -2.03125 5.1875 -1.6875 C 5.988281 -1.34375 6.910156 -1.171875 7.953125 -1.171875 C 8.878906 -1.171875 9.710938 -1.316406 10.453125 -1.609375 C 11.203125 -1.910156 11.796875 -2.3125 12.234375 -2.8125 C 12.679688 -3.320312 12.910156 -3.890625 12.921875 -4.515625 L 5.359375 -4.515625 L 5.359375 -5.828125 L 14.890625 -5.828125 L 14.890625 0 L 13.25 0 L 13.09375 -2.125 L 13.078125 -2.125 C 12.554688 -1.375 11.800781 -0.773438 10.8125 -0.328125 C 9.832031 0.117188 8.71875 0.34375 7.46875 0.34375 Z M 7.46875 0.34375 "/></g></g><g style="fill:#000000;fill-opacity:1;"><g transform="translate(238.898141, 283.908116)"><path style="stroke:none" d="M 0.0625 0 L 5.484375 -10.421875 L 7.859375 -10.421875 L 13.25 0 L 11.09375 0 L 9.90625 -2.28125 L 3.375 -2.28125 L 2.1875 0 Z M 3.984375 -3.703125 L 9.328125 -3.703125 L 6.671875 -8.9375 L 6.640625 -8.9375 Z M 3.984375 -3.703125 "/></g></g><g style="fill:#000000;fill-opacity:1;"><g transform="translate(255.473145, 283.908116)"><path style="stroke:none" d="M 0.734375 0 L 0.734375 -10.421875 L 2.78125 -10.421875 L 2.78125 -1.625 L 9.453125 -1.625 L 9.453125 0 Z M 0.734375 0 "/></g></g><g style="fill:#000000;fill-opacity:1;"><g transform="translate(268.312545, 283.908116)"><path style="stroke:none" d="M 0.734375 0 L 0.734375 -10.421875 L 11.09375 -10.421875 L 11.09375 -8.921875 L 2.71875 -8.921875 L 2.71875 -6.046875 L 10.515625 -6.046875 L 10.515625 -4.671875 L 2.71875 -4.671875 L 2.71875 -1.484375 L 11.25 -1.484375 L 11.25 0 Z M 0.734375 0 "/></g></g></g></svg>